<svg width="31" height="31" viewBox="0 0 31 31" fill="none" xmlns="http://www.w3.org/2000/svg">
<g>
<path d="M0 15.5C0 22.148 4.03871 27.8154 9.70581 30L11 15.5L9.70581 1C4.03871 3.1847 0 8.85203 0 15.5Z" fill="#6DA544"/>
<path d="M31 15.5C31 6.93964 24.0243 0 15.4194 0C13.5136 0 11.6879 0.341061 10 0.964088V30.0359C11.6879 30.659 13.5136 31 15.4194 31C24.0243 31 31 24.0604 31 15.5Z" fill="#D80027"/>
<circle cx="10.5" cy="15.5" r="5.5" fill="#FFDA44"/>
<path d="M7 13V16.1579C7 17.7275 8.3431 19 10 19C11.6569 19 13 17.7276 13 16.1579V13H7Z" fill="#D80027"/>
<path d="M10 17C9.44862 17 9 16.6155 9 16.1428V15H11V16.1429C11 16.6155 10.5514 17 10 17Z" fill="#F0F0F0"/>
</g>
</svg>
