<svg width="31" height="31" viewBox="0 0 31 31" fill="none" xmlns="http://www.w3.org/2000/svg">
<g>
<path d="M0 15.5C0 17.3287 0.341061 19.0804 0.964088 20.7L15.5 22L30.0359 20.7C30.6589 19.0804 31 17.3287 31 15.5C31 13.6713 30.6589 11.9196 30.0359 10.3L15.5 9L0.964088 10.3C0.341061 11.9196 0 13.6713 0 15.5Z" fill="#FFDA44"/>
<path d="M29.9445 10.1087C27.7682 4.20637 22.1225 0 15.5 0C8.87748 0 3.23181 4.20637 1.05554 10.1087H29.9445Z" fill="#D80027"/>
<path d="M1.05554 20.8912C3.23181 26.7936 8.87748 31 15.5 31C22.1225 31 27.7682 26.7936 29.9445 20.8912H1.05554Z" fill="#D80027"/>
</g>
</svg>
