<svg width="33" height="33" viewBox="0 0 33 33" fill="none" xmlns="http://www.w3.org/2000/svg">
<g>
<circle cx="16.5" cy="16.5" r="16.5" fill="#D80027"/>
<path d="M15.3816 13.879L16.7515 15.8087L18.97 15.0734L17.598 17.0014L18.9677 18.931L16.7499 18.1928L15.378 20.1208L15.3794 17.7368L13.1616 16.9986L15.3802 16.2633L15.3816 13.879Z" fill="#F0F0F0"/>
<path d="M11.6431 21.8232C9.03731 21.8232 6.92478 19.6637 6.92478 17C6.92478 14.3363 9.03731 12.1768 11.6431 12.1768C12.4556 12.1768 13.2201 12.3869 13.8875 12.7565C12.8405 11.7097 11.4085 11.0637 9.82839 11.0637C6.62113 11.0637 4.02124 13.7215 4.02124 16.9999C4.02124 20.2784 6.6212 22.9361 9.82839 22.9361C11.4086 22.9361 12.8405 22.2901 13.8875 21.2433C13.2201 21.6131 12.4556 21.8232 11.6431 21.8232Z" fill="#F0F0F0"/>
</g>
</svg>
