<svg width="166" height="63" viewBox="0 0 166 63" fill="none" xmlns="http://www.w3.org/2000/svg">
<path fill-rule="evenodd" clip-rule="evenodd" d="M2.24257 49.1899H0V62.869H2.45555V58.7522C2.45555 58.2531 2.41796 57.9101 2.41796 57.9101H2.45555C3.1199 58.7881 4.17089 59.2904 5.27442 59.2574C7.86151 59.2574 9.79713 57.1304 9.79713 54.0926C9.79713 51.0549 8.07449 48.9591 5.41223 48.9591C4.14046 48.8893 2.92942 49.5065 2.24257 50.5746H2.20498C2.22949 50.3509 2.24204 50.126 2.24257 49.901V49.1899ZM7.33532 54.155C7.33532 56.1012 6.18272 57.199 4.82966 57.199L4.86098 57.2239C3.23857 57.2239 2.4117 55.7207 2.4117 54.1987C2.4117 52.003 3.62694 51.0799 4.87977 51.0799C6.33306 51.0799 7.33532 52.2089 7.33532 54.155Z" fill="#003D5F"/>
<path d="M11.6012 49.1899H13.9565V50.8803C13.9558 51.1116 13.9433 51.3427 13.9189 51.5727H13.9565C14.3411 50.149 15.6093 49.1388 17.0886 49.0776C17.2376 49.0787 17.3863 49.0912 17.5334 49.1151V51.5228C17.3406 51.4932 17.1458 51.4786 16.9508 51.4791C15.6897 51.4845 14.5886 52.3305 14.2635 53.5438C14.1124 54.0624 14.0406 54.6007 14.0505 55.1406V59.0266H11.6012" fill="#003D5F"/>
<path fill-rule="evenodd" clip-rule="evenodd" d="M29.0719 54.0927C29.0719 51.0924 26.6602 48.9591 23.6472 48.9591V48.9841C20.6529 48.9841 18.2349 51.0986 18.2349 54.1176C18.2349 57.1366 20.6717 59.2574 23.666 59.2574C26.6602 59.2574 29.0719 57.093 29.0719 54.0927ZM26.575 55.3809C26.0582 56.5177 24.8992 57.2275 23.6472 57.1741C22.8435 57.1785 22.0734 56.8534 21.5178 56.2753C20.9621 55.6972 20.6697 54.9169 20.7093 54.1176C20.7104 52.8697 21.4733 51.7479 22.6365 51.2835C23.7997 50.8191 25.1296 51.1055 25.9961 52.007C26.8627 52.9085 27.0918 54.2441 26.575 55.3809Z" fill="#003D5F"/>
<path fill-rule="evenodd" clip-rule="evenodd" d="M33.1499 45.3413H30.6943V59.0267H33.0246V58.4653C33.0253 58.2402 33.0127 58.0152 32.987 57.7916H33.0246C33.6956 58.7393 34.7985 59.2896 35.9625 59.2574C38.5684 59.2574 40.4852 57.1304 40.4852 54.0927C40.4852 51.055 38.7688 48.9591 36.1003 48.9591C34.9393 48.9094 33.8309 49.4437 33.1499 50.3813H33.106C33.1362 50.1058 33.1509 49.8288 33.1499 49.5517V45.3413ZM38.0297 54.1551C38.0297 56.1012 36.8771 57.199 35.524 57.199L35.5553 57.224C33.9141 57.224 33.0998 55.7207 33.0998 54.1987C33.0998 52.0031 34.3213 51.0799 35.5741 51.0799C37.0211 51.0799 38.0297 52.2089 38.0297 54.1551Z" fill="#003D5F"/>
<path fill-rule="evenodd" clip-rule="evenodd" d="M44.6885 45.3413H42.258V47.512H44.6885V45.3413ZM44.7135 49.1899H42.258V59.0017H44.7135V49.1899Z" fill="#003D5F"/>
<path fill-rule="evenodd" clip-rule="evenodd" d="M57.2168 54.0927C57.2168 51.0924 54.7988 48.9591 51.7857 48.9591H51.7669C48.7727 48.9591 46.3547 51.0737 46.3547 54.0927C46.3547 57.1117 48.8103 59.2574 51.8045 59.2574C54.7988 59.2574 57.2168 57.093 57.2168 54.0927ZM54.7161 55.3791C54.1893 56.5143 53.0212 57.2154 51.767 57.1491C50.9747 57.145 50.2174 56.821 49.6689 56.2504C49.1132 55.6723 48.8208 54.892 48.8604 54.0927C48.8621 52.8421 49.6289 51.7187 50.7959 51.2567C51.963 50.7947 53.295 51.0874 54.1586 51.9954C55.0221 52.9035 55.243 54.2438 54.7161 55.3791Z" fill="#003D5F"/>
<path d="M59.5408 51.2857H58.2566V49.3396H59.5909V46.5139H62.0151V49.3396H64.2514V51.2857H62.0151V55.0969C61.9719 55.6175 62.1659 56.1299 62.5435 56.4926C62.9211 56.8553 63.4423 57.0299 63.9633 56.9682C64.1127 56.9701 64.2618 56.9554 64.408 56.9245V59.064C64.1596 59.1045 63.908 59.1233 63.6563 59.1201C62.2845 59.1201 59.5596 58.7147 59.5596 55.4275" fill="#003D5F"/>
<path fill-rule="evenodd" clip-rule="evenodd" d="M68.8367 45.3413H66.4V47.512H68.8367V45.3413ZM68.8555 49.1899H66.4V59.0017H68.8555V49.1899Z" fill="#003D5F"/>
<path d="M75.9528 48.9591C77.3557 48.8998 78.7192 49.4293 79.7113 50.4187L78.6276 52.0904C77.9326 51.4337 77.0172 51.0579 76.0593 51.0362C75.2494 51.0165 74.4675 51.3321 73.9 51.9078C73.3324 52.4836 73.0301 53.2679 73.0651 54.0739C73.0389 54.8939 73.3533 55.6884 73.9341 56.2703C74.5149 56.8522 75.3108 57.1701 76.1345 57.1491C77.2198 57.0912 78.2485 56.6487 79.0348 55.9016L79.9807 57.6356C78.9096 58.6903 77.4591 59.2743 75.9528 59.2574C72.6892 59.2574 70.6032 56.9682 70.6032 54.1176C70.5841 52.7163 71.1482 51.3697 72.1616 50.3972C73.175 49.4248 74.5473 48.9132 75.9528 48.984" fill="#003D5F"/>
<path d="M0 14.359H4.92989V29.0486H7.37291L12.1525 22.0874H17.6211L11.3757 30.9012V30.9823L18.3978 41.7983H12.7288L7.49192 33.1842H4.92989V41.7983H0" fill="#003D5F"/>
<path fill-rule="evenodd" clip-rule="evenodd" d="M32.1414 29.4353H31.4836C28.2639 29.4353 19.7634 29.8844 19.7634 36.122C19.7634 40.0642 22.9456 42.2661 26.4786 42.2661C30.9825 42.2661 32.536 38.7855 32.4984 38.7855H32.5736C32.5215 39.2453 32.4943 39.7075 32.4922 40.1702V41.792H37.0399V29.4727C37.0399 24.4889 34.0143 21.6258 28.8151 21.6258C26.0282 21.6007 23.3033 22.4448 21.0225 24.0397L22.9017 27.5578C22.9017 27.5578 25.5014 25.6865 28.339 25.6865C30.5064 25.6865 32.1414 26.5722 32.1414 29.1608V29.4353ZM32.1915 33.259C32.1915 35.6542 30.3248 38.4362 27.7251 38.4362L27.7063 38.4674C25.6893 38.4674 24.7183 37.2323 24.7183 35.9162C24.7183 33.1404 28.8151 32.7974 31.3208 32.7974H32.1915V33.259Z" fill="#003D5F"/>
<path d="M41.8821 14.3466H46.7744V34.9307C46.7744 37.0889 47.5136 37.6316 48.7915 37.6316C49.1798 37.6316 49.5306 37.5942 49.5306 37.5942V41.8857C49.0159 41.9576 48.4969 41.9951 47.9771 41.9979C45.2648 41.9979 41.8821 41.3056 41.8821 35.6605" fill="#003D5F"/>
<path fill-rule="evenodd" clip-rule="evenodd" d="M70.6032 30.9823C70.6032 25.7614 67.5401 21.6259 61.8334 21.6259L61.7645 21.6072C55.895 21.6072 51.7419 25.8612 51.7419 31.9242C51.7419 37.5318 55.8324 42.2475 62.3909 42.2475C65.2956 42.265 68.1139 41.2648 70.3527 39.4218L68.4734 35.9101C66.8518 37.2193 64.8522 37.9777 62.7668 38.0745C59.8164 38.0745 57.1416 36.2968 56.8284 32.8536H70.4842C70.4842 32.8536 70.6032 31.5562 70.6032 30.9823ZM61.6518 25.3934C63.8254 25.3934 65.4917 26.8281 65.5731 29.4915H56.9161C57.3796 26.9403 59.1461 25.3934 61.6518 25.3934Z" fill="#003D5F"/>
<path fill-rule="evenodd" clip-rule="evenodd" d="M79.5547 14.3466H74.6812L74.6624 18.7129H79.5547V14.3466ZM79.5923 22.075H74.6624V41.7921H79.5923V22.075Z" fill="#003D5F"/>
<path fill-rule="evenodd" clip-rule="evenodd" d="M98.3597 24.1209C98.3597 24.1209 97.0066 21.6259 92.6593 21.6259L92.6906 21.6446C87.4789 21.6446 83.7204 25.724 83.7204 31.9616C83.7204 38.0682 87.1343 42.2849 92.4902 42.2849C95.0252 42.3888 97.4124 41.0972 98.7042 38.9228H98.7794C98.7287 39.3367 98.7036 39.7533 98.7042 40.1703V41.7921H103.358V14.3466H98.3973V22.9981C98.3973 23.6157 98.4411 24.1209 98.4411 24.1209H98.3597ZM98.5852 31.9117C98.5852 36.278 96.1798 38.1493 93.6177 38.1493V38.1369C90.7049 38.1369 88.6878 35.6917 88.6878 31.9491C88.6878 28.0506 90.9429 25.8487 93.6553 25.8487C96.9565 25.8487 98.5852 28.8615 98.5852 31.9117Z" fill="#003D5F"/>
<path d="M146.838 22.0875H151.592V24.3704C151.592 24.8226 151.567 25.2745 151.517 25.724H151.592C152.952 23.1315 155.679 21.5399 158.615 21.6259C162.999 21.6259 165.505 23.9088 165.505 29.111V41.7921H160.613V30.1278C160.613 27.7325 159.986 26.1107 157.481 26.1107C154.996 26.0877 152.81 27.7391 152.162 30.1278C151.903 30.9805 151.785 31.8695 151.812 32.76V41.7921H146.882" fill="#003D5F"/>
<rect x="123.203" width="4.21578" height="29.504" fill="#003D5F"/>
<path d="M130.489 13.3922V17.7585C135.151 19.8226 138.122 24.4616 138.037 29.5414C138.037 37.1014 132.324 42.7901 125.308 42.7901V46.7198C129.906 46.7774 134.332 44.984 137.584 41.7464C140.835 38.5087 142.636 34.1011 142.578 29.5227C142.638 22.0542 137.696 15.4599 130.489 13.3922" fill="#003D5F"/>
<path d="M112.586 29.5226C112.5 24.4428 115.472 19.8038 120.134 17.7397V13.3734C112.927 15.4411 107.984 22.0354 108.044 29.5039C107.981 34.08 109.776 38.4877 113.021 41.7285C116.266 44.9693 120.687 46.7689 125.283 46.7198V42.7713C118.273 42.7713 112.561 37.0826 112.561 29.5226" fill="#003D5F"/>
</svg>
