<svg width="131" height="38" viewBox="0 0 131 38" fill="none" xmlns="http://www.w3.org/2000/svg">
<path d="M0 8.90051H2.97905V17.8025H4.45533L7.34353 13.584H10.6481L6.87415 18.9251V18.9743L11.1175 25.5288H7.69178L4.52725 20.3086H2.97905V25.5288H0" fill="white"/>
<path fill-rule="evenodd" clip-rule="evenodd" d="M19.2682 17.9753H18.8698C16.9198 17.9753 11.7715 18.2397 11.7715 21.9118C11.7715 24.2326 13.6988 25.5289 15.8385 25.5289C18.5663 25.5289 19.5072 23.4799 19.4844 23.4799H19.53C19.4984 23.7505 19.482 24.0227 19.4807 24.2951V25.2498H22.235V17.9973C22.235 15.0633 20.4026 13.3778 17.2536 13.3778C15.5658 13.363 13.9154 13.8599 12.5341 14.7989L13.6722 16.87C13.6722 16.87 15.2467 15.7683 16.9653 15.7683C18.278 15.7683 19.2682 16.2898 19.2682 17.8137V17.9753ZM19.2985 20.2263C19.2985 21.6364 18.168 23.2742 16.5935 23.2742L16.5821 23.2926C15.3605 23.2926 14.7724 22.5655 14.7724 21.7907C14.7724 20.1566 17.2536 19.9546 18.7712 19.9546H19.2985V20.2263Z" fill="white"/>
<path d="M25.5049 8.90051H28.433V21.2789C28.433 22.5768 28.8754 22.9031 29.6403 22.9031C29.8727 22.9031 30.0827 22.8806 30.0827 22.8806V25.4613C29.7746 25.5046 29.464 25.5271 29.1529 25.5288C27.5295 25.5288 25.5049 25.1125 25.5049 21.7178" fill="white"/>
<path fill-rule="evenodd" clip-rule="evenodd" d="M42.5081 18.8968C42.5081 15.8231 40.7026 13.3885 37.3389 13.3885L37.2983 13.3774C33.8386 13.3774 31.3906 15.8819 31.3906 19.4513C31.3906 22.7526 33.8017 25.5288 37.6675 25.5288C39.3796 25.5391 41.0408 24.9502 42.3604 23.8653L41.2527 21.7978C40.2969 22.5686 39.1183 23.0151 37.8891 23.0721C36.15 23.0721 34.5734 22.0255 34.3888 19.9984H42.438C42.438 19.9984 42.5081 19.2346 42.5081 18.8968ZM37.2318 15.6065C38.5131 15.6065 39.4952 16.4511 39.5432 18.0191H34.4405C34.7137 16.5172 35.7549 15.6065 37.2318 15.6065Z" fill="white"/>
<path fill-rule="evenodd" clip-rule="evenodd" d="M47.72 8.90051H45.134L45.124 11.5459H47.72V8.90051ZM47.7399 13.5829H45.124V25.5288H47.7399V13.5829Z" fill="white"/>
<path fill-rule="evenodd" clip-rule="evenodd" d="M59.1308 14.7168C59.1308 14.7168 58.3198 13.2321 55.7139 13.2321L55.7327 13.2432C52.6086 13.2432 50.3557 15.6707 50.3557 19.3825C50.3557 23.0162 52.4021 25.5254 55.6125 25.5254C57.132 25.5872 58.563 24.8186 59.3373 23.5247H59.3824C59.352 23.7711 59.337 24.019 59.3373 24.2671V25.2321H62.1272V8.90051H59.1533V14.0487C59.1533 14.4162 59.1796 14.7168 59.1796 14.7168H59.1308ZM59.266 19.3528C59.266 21.951 57.8241 23.0645 56.2884 23.0645V23.0571C54.5424 23.0571 53.3333 21.6021 53.3333 19.375C53.3333 17.0552 54.6851 15.745 56.3109 15.745C58.2897 15.745 59.266 17.5377 59.266 19.3528Z" fill="white"/>
<path d="M67.5003 17.8622C67.4483 14.8421 69.252 12.0841 72.0815 10.8569V8.26099C67.7072 9.49032 64.7076 13.4108 64.744 17.8511C64.7059 20.5717 65.795 23.1923 67.7645 25.119C69.7341 27.0458 72.4174 28.1157 75.2066 28.0865V25.739C70.9524 25.739 67.4851 22.3569 67.4851 17.8622" fill="white"/>
<path d="M88.1754 13.3348H91.1871V14.6656C91.1867 14.9292 91.1708 15.1926 91.1395 15.4547H91.1871C92.0481 13.9434 93.7756 13.0157 95.6352 13.0658C98.4128 13.0658 100 14.3966 100 17.4291V24.8212H96.901V18.0217C96.901 16.6255 96.5042 15.6801 94.917 15.6801C93.3432 15.6667 91.9583 16.6293 91.5482 18.0217C91.3839 18.5188 91.3088 19.037 91.326 19.5562V24.8212H88.2032" fill="#F7DB25"/>
<rect x="74.3801" y="0.00012207" width="2.62768" height="17.636" fill="#F7DB25"/>
<path d="M78.8466 7.83838V10.4911C81.6837 11.7451 83.4922 14.5635 83.4401 17.6497C83.4401 22.2427 79.9635 25.6988 75.694 25.6988V28.0863C78.492 28.1213 81.1857 27.0317 83.1644 25.0647C85.143 23.0977 86.239 20.4199 86.2039 17.6383C86.2403 13.1009 83.2326 9.09461 78.8466 7.83838" fill="#F7DB25"/>
<path fill-rule="evenodd" clip-rule="evenodd" d="M1.35272 29.4226H0V38.0001H1.48119V35.4186C1.48119 35.1057 1.45852 34.8906 1.45852 34.8906H1.48119C1.88193 35.4412 2.51589 35.7562 3.18154 35.7354C4.74208 35.7354 5.90966 34.4017 5.90966 32.4969C5.90966 30.5921 4.87055 29.2779 3.26467 29.2779C2.49754 29.2341 1.76704 29.6212 1.35272 30.2909H1.33005C1.34483 30.1506 1.3524 30.0096 1.35272 29.8685V29.4226ZM4.42469 32.536C4.42469 33.7563 3.72943 34.4447 2.91326 34.4447L2.93216 34.4604C1.95351 34.4604 1.45474 33.5177 1.45474 32.5634C1.45474 31.1866 2.18778 30.6077 2.94349 30.6077C3.82012 30.6077 4.42469 31.3157 4.42469 32.536Z" fill="white"/>
<path d="M7.2229 29.3427H8.52645V30.3691C8.52607 30.5095 8.51912 30.6498 8.50565 30.7895H8.52645C8.73931 29.925 9.44119 29.3116 10.2599 29.2745C10.3424 29.2752 10.4247 29.2828 10.506 29.2973V30.7592C10.3994 30.7412 10.2916 30.7323 10.1836 30.7327C9.48569 30.7359 8.87628 31.2496 8.69633 31.9863C8.61269 32.3011 8.57295 32.628 8.57845 32.9558V35.3153H7.2229" fill="white"/>
<path fill-rule="evenodd" clip-rule="evenodd" d="M17.729 32.957C17.729 31.1971 16.2677 29.9458 14.4421 29.9458V29.9604C12.6278 29.9604 11.1627 31.2008 11.1627 32.9717C11.1627 34.7426 12.6392 35.9866 14.4535 35.9866C16.2677 35.9866 17.729 34.7169 17.729 32.957ZM16.2161 33.7127C15.9029 34.3795 15.2007 34.7959 14.4421 34.7645C13.9551 34.7671 13.4885 34.5764 13.1518 34.2373C12.8151 33.8982 12.638 33.4405 12.662 32.9717C12.6627 32.2397 13.1249 31.5816 13.8297 31.3092C14.5345 31.0368 15.3403 31.2048 15.8653 31.7336C16.3904 32.2624 16.5292 33.0458 16.2161 33.7127Z" fill="white"/>
<path fill-rule="evenodd" clip-rule="evenodd" d="M19.8678 27.261H18.3856V35.841H19.7921V35.489C19.7925 35.3479 19.785 35.2069 19.7695 35.0667H19.7921C20.1971 35.6609 20.8628 36.0059 21.5654 35.9857C23.1383 35.9857 24.2953 34.6522 24.2953 32.7477C24.2953 30.8432 23.2593 29.5292 21.6486 29.5292C20.9478 29.498 20.2788 29.833 19.8678 30.4208H19.8413C19.8595 30.2481 19.8683 30.0744 19.8678 29.9007V27.261ZM22.8131 32.7868C22.8131 34.0069 22.1174 34.6952 21.3007 34.6952L21.3197 34.7108C20.329 34.7108 19.8375 33.7683 19.8375 32.8141C19.8375 31.4376 20.5748 30.8588 21.331 30.8588C22.2044 30.8588 22.8131 31.5666 22.8131 32.7868Z" fill="white"/>
<path fill-rule="evenodd" clip-rule="evenodd" d="M26.9084 27.261H25.6085V28.5409H26.9084V27.261ZM26.9218 29.5302H25.6085V35.3153H26.9218V29.5302Z" fill="white"/>
<path fill-rule="evenodd" clip-rule="evenodd" d="M34.1447 32.957C34.1447 31.1971 32.683 29.9458 30.8615 29.9458H30.8502C29.0401 29.9458 27.5784 31.1862 27.5784 32.957C27.5784 34.7279 29.0628 35.9866 30.8729 35.9866C32.683 35.9866 34.1447 34.7169 34.1447 32.957ZM30.8502 34.7499C31.6083 34.7888 32.3145 34.3775 32.633 33.7116L30.8502 34.7499Z" fill="white"/>
<path d="M35.4867 31.398H34.8013V30.2583H35.5134V28.6034H36.8073V30.2583H38.0008V31.398H36.8073V33.6301C36.7842 33.935 36.8878 34.2351 37.0893 34.4475C37.2908 34.6599 37.569 34.7621 37.847 34.726C37.9268 34.7271 38.0064 34.7186 38.0844 34.7004V35.9535C37.9518 35.9772 37.8176 35.9882 37.6832 35.9863C36.951 35.9863 35.4967 35.7489 35.4967 33.8237" fill="white"/>
<path fill-rule="evenodd" clip-rule="evenodd" d="M41.3575 27.261H40.0543V28.5409H41.3575V27.261ZM41.3676 29.5302H40.0543V35.3153H41.3676V29.5302Z" fill="white"/>
<path d="M45.6777 29.9484C46.4635 29.9137 47.2273 30.2241 47.7831 30.8042L47.176 31.7843C46.7867 31.3993 46.2739 31.179 45.7374 31.1663C45.2837 31.1547 44.8457 31.3397 44.5278 31.6773C44.2099 32.0149 44.0406 32.4747 44.0602 32.9473C44.0455 33.4281 44.2216 33.8939 44.5469 34.235C44.8723 34.5762 45.3181 34.7626 45.7795 34.7502C46.3874 34.7163 46.9637 34.4569 47.4041 34.0188L47.9339 35.0355C47.334 35.6539 46.5215 35.9963 45.6777 35.9864C43.8496 35.9864 42.6812 34.6442 42.6812 32.9729C42.6705 32.1513 42.9864 31.3618 43.5541 30.7916C44.1217 30.2215 44.8904 29.9216 45.6777 29.9631" fill="white"/>
<path fill-rule="evenodd" clip-rule="evenodd" d="M124.463 25.9878C125.375 25.9878 126.23 25.8076 127.029 25.4472C127.828 25.0868 128.52 24.538 129.105 23.8008C129.691 23.0636 130.153 22.1319 130.492 21.0056C130.831 19.8793 131 18.5462 131 17.0063C131 15.4663 130.831 14.1312 130.492 13.0008C130.153 11.8704 129.691 10.9346 129.105 10.1933C128.52 9.452 127.828 8.90115 127.029 8.54074C126.23 8.18033 125.375 8.00012 124.463 8.00012C123.543 8.00012 122.688 8.18033 121.898 8.54074C121.107 8.90115 120.419 9.452 119.834 10.1933C119.248 10.9346 118.788 11.8704 118.454 13.0008C118.119 14.1312 117.952 15.4663 117.952 17.0063C117.952 18.5462 118.119 19.8793 118.454 21.0056C118.788 22.1319 119.248 23.0636 119.834 23.8008C120.419 24.538 121.107 25.0868 121.898 25.4472C122.688 25.8076 123.543 25.9878 124.463 25.9878ZM112.456 25.5578C111.695 25.8527 110.859 26.0001 109.947 26.0001C109.044 26.0001 108.226 25.8588 107.494 25.5762C106.762 25.2936 106.137 24.8923 105.618 24.3721C105.1 23.852 104.701 23.2213 104.42 22.48C104.14 21.7387 104 20.9093 104 19.9919C104 19.222 104.176 18.4029 104.527 17.5346C104.878 16.6663 105.434 15.7325 106.196 14.7332L110.75 8.72504C110.867 8.5776 111.03 8.45268 111.239 8.35029C111.448 8.2479 111.687 8.19671 111.954 8.19671H113.937L107.701 15.925C108.128 15.6383 108.6 15.4151 109.119 15.2554C109.638 15.0957 110.198 15.0158 110.8 15.0158C111.52 15.0158 112.201 15.1325 112.845 15.366C113.489 15.5994 114.054 15.9394 114.539 16.3858C115.024 16.8322 115.409 17.381 115.693 18.0322C115.978 18.6834 116.12 19.4267 116.12 20.2622C116.12 21.0732 115.969 21.8267 115.668 22.523C115.367 23.2192 114.947 23.8254 114.407 24.3414C113.868 24.8575 113.217 25.2629 112.456 25.5578ZM108.322 23.9052C108.786 24.0895 109.316 24.1817 109.909 24.1817C110.512 24.1817 111.055 24.0875 111.54 23.8991C112.026 23.7107 112.442 23.4486 112.789 23.1128C113.136 22.7769 113.404 22.3796 113.592 21.9209C113.78 21.4622 113.874 20.9626 113.874 20.422C113.874 19.8486 113.782 19.3305 113.598 18.8677C113.414 18.4049 113.155 18.0117 112.82 17.6882C112.486 17.3646 112.084 17.1168 111.616 16.9448C111.147 16.7728 110.633 16.6868 110.072 16.6868C109.47 16.6868 108.927 16.7872 108.441 16.9878C107.956 17.1885 107.544 17.4588 107.206 17.7988C106.867 18.1387 106.608 18.5319 106.428 18.9783C106.248 19.4247 106.158 19.8895 106.158 20.3728C106.158 20.938 106.242 21.454 106.409 21.9209C106.576 22.3878 106.821 22.7892 107.143 23.125C107.465 23.4609 107.858 23.7209 108.322 23.9052ZM122.87 23.7824C123.38 24.024 123.911 24.1448 124.463 24.1448C125.015 24.1448 125.546 24.024 126.057 23.7824C126.567 23.5407 127.016 23.1414 127.405 22.5844C127.794 22.0274 128.104 21.2943 128.334 20.3851C128.564 19.4759 128.679 18.3496 128.679 17.0063C128.679 15.6629 128.564 14.5346 128.334 13.6213C128.104 12.708 127.794 11.9728 127.405 11.4158C127.016 10.8588 126.567 10.4595 126.057 10.2179C125.546 9.97623 125.015 9.85541 124.463 9.85541C123.911 9.85541 123.38 9.97623 122.87 10.2179C122.36 10.4595 121.912 10.8588 121.527 11.4158C121.143 11.9728 120.835 12.708 120.605 13.6213C120.375 14.5346 120.26 15.6629 120.26 17.0063C120.26 18.3496 120.375 19.4759 120.605 20.3851C120.835 21.2943 121.143 22.0274 121.527 22.5844C121.912 23.1414 122.36 23.5407 122.87 23.7824Z" fill="white"/>
</svg>
