<svg width="101" height="39" viewBox="0 0 101 39" fill="none" xmlns="http://www.w3.org/2000/svg">
<path d="M0 9.13477H2.97991V18.271H4.45661L7.34565 13.9415H10.6512L6.87613 19.4232V19.4736L11.1207 26.2007H7.694L4.52855 20.8431H2.97991V26.2007H0" fill="white"/>
<path fill-rule="evenodd" clip-rule="evenodd" d="M19.2738 18.4483H18.8753C16.9247 18.4483 11.7749 18.7197 11.7749 22.4885C11.7749 24.8704 13.7028 26.2007 15.8431 26.2007C18.5717 26.2007 19.5129 24.0978 19.4901 24.0978H19.5356C19.5041 24.3756 19.4876 24.6549 19.4863 24.9344V25.9143H22.2414V18.471C22.2414 15.4597 20.4085 13.7298 17.2586 13.7298C15.5703 13.7146 13.9194 14.2247 12.5377 15.1883L13.6762 17.3139C13.6762 17.3139 15.2511 16.1833 16.9702 16.1833C18.2833 16.1833 19.2738 16.7185 19.2738 18.2825V18.4483ZM19.3041 20.7586C19.3041 22.2058 18.1732 23.8867 16.5983 23.8867L16.5869 23.9055C15.365 23.9055 14.7767 23.1593 14.7767 22.3641C14.7767 20.687 17.2586 20.4797 18.7766 20.4797H19.3041V20.7586Z" fill="white"/>
<path d="M25.5122 9.13477H28.4412V21.8389C28.4412 23.1709 28.8837 23.5059 29.6488 23.5059C29.8813 23.5059 30.0913 23.4828 30.0913 23.4828V26.1314C29.7832 26.1758 29.4724 26.1989 29.1612 26.2007C27.5374 26.2007 25.5122 25.7734 25.5122 22.2893" fill="white"/>
<path fill-rule="evenodd" clip-rule="evenodd" d="M42.5204 19.3941C42.5204 16.2395 40.7143 13.7408 37.3497 13.7408L37.309 13.7295C33.8484 13.7295 31.3997 16.2998 31.3997 19.9632C31.3997 23.3514 33.8114 26.2006 37.6784 26.2006C39.391 26.2112 41.0527 25.6068 42.3726 24.4933L41.2646 22.3715C40.3085 23.1625 39.1295 23.6208 37.9 23.6792C36.1604 23.6792 34.5833 22.6051 34.3987 20.5247H42.4502C42.4502 20.5247 42.5204 19.7408 42.5204 19.3941ZM37.2426 16.0172C38.5241 16.0172 39.5066 16.884 39.5546 18.4933H34.4504C34.7237 16.9519 35.7652 16.0172 37.2426 16.0172Z" fill="white"/>
<path fill-rule="evenodd" clip-rule="evenodd" d="M47.7337 9.13477H45.1469L45.137 11.8498H47.7337V9.13477ZM47.7536 13.9404H45.137V26.2007H47.7536V13.9404Z" fill="white"/>
<path fill-rule="evenodd" clip-rule="evenodd" d="M59.1479 15.1041C59.1479 15.1041 58.3366 13.5803 55.73 13.5803L55.7487 13.5918C52.6238 13.5918 50.3702 16.0831 50.3702 19.8925C50.3702 23.622 52.4172 26.1971 55.6286 26.1971C57.1485 26.2606 58.5799 25.4718 59.3544 24.1438H59.3995C59.3691 24.3966 59.3541 24.6511 59.3544 24.9057V25.8962H62.1451V9.13477H59.1704V14.4184C59.1704 14.7956 59.1967 15.1041 59.1967 15.1041H59.1479ZM59.2831 19.8621C59.2831 22.5287 57.8408 23.6715 56.3046 23.6715V23.6639C54.5581 23.6639 53.3487 22.1706 53.3487 19.8849C53.3487 17.504 54.7008 16.1593 56.3272 16.1593C58.3065 16.1593 59.2831 17.9993 59.2831 19.8621Z" fill="white"/>
<path d="M67.5198 18.3323C67.4678 15.2327 69.2719 12.4021 72.1023 11.1426V8.47839C67.7268 9.74008 64.7263 13.7637 64.7627 18.3209C64.7246 21.1131 65.814 23.8026 67.7841 25.7801C69.7542 27.7575 72.4382 28.8556 75.2283 28.8256V26.4164C70.9728 26.4164 67.5046 22.9452 67.5046 18.3323" fill="white"/>
<path d="M88.2009 13.6857H91.2135V15.0515C91.2131 15.3221 91.1972 15.5924 91.1659 15.8613H91.2135C92.0747 14.3103 93.8027 13.3582 95.6629 13.4096C98.4412 13.4096 100.029 14.7754 100.029 17.8877V25.4743H96.929V18.496C96.929 17.063 96.5321 16.0927 94.9444 16.0927C93.3702 16.079 91.9849 17.0669 91.5747 18.496C91.4103 19.0061 91.3352 19.538 91.3524 20.0708V25.4743H88.2287" fill="#796C42"/>
<rect x="74.4016" y="0.00012207" width="2.62843" height="18.1001" fill="#796C42"/>
<path d="M78.8693 8.04456V10.7671C81.7073 12.0541 83.5163 14.9466 83.4642 18.1141C83.4642 22.8279 79.9866 26.375 75.7158 26.375V28.8253C78.5147 28.8612 81.2091 27.743 83.1884 25.7242C85.1676 23.7054 86.2639 20.9571 86.2287 18.1024C86.2652 13.4456 83.2566 9.33385 78.8693 8.04456" fill="#796C42"/>
<path fill-rule="evenodd" clip-rule="evenodd" d="M1.35311 30.1969H0V39.0001H1.48162V36.3507C1.48162 36.0296 1.45894 35.8088 1.45894 35.8088H1.48162C1.88248 36.3738 2.51662 36.6971 3.18246 36.6758C4.74345 36.6758 5.91136 35.307 5.91136 33.3521C5.91136 31.3971 4.87196 30.0484 3.26561 30.0484C2.49826 30.0035 1.76755 30.4007 1.35311 31.088H1.33043C1.34522 30.9441 1.35279 30.7993 1.35311 30.6545V30.1969ZM4.42596 33.3922C4.42596 34.6447 3.73051 35.3512 2.9141 35.3512L2.933 35.3672C1.95408 35.3672 1.45516 34.3998 1.45516 33.4203C1.45516 32.0073 2.18841 31.4132 2.94434 31.4132C3.82122 31.4132 4.42596 32.1398 4.42596 33.3922Z" fill="white"/>
<path d="M7.22498 30.1149H8.5289V31.1683C8.52852 31.3124 8.52157 31.4564 8.50809 31.5997H8.5289C8.74182 30.7126 9.44391 30.083 10.2628 30.0449C10.3453 30.0456 10.4276 30.0534 10.5091 30.0682V31.5686C10.4024 31.5502 10.2945 31.5411 10.1866 31.5414C9.48841 31.5448 8.87884 32.0719 8.69883 32.828C8.61517 33.1512 8.57542 33.4866 8.58092 33.8231V36.2447H7.22498" fill="white"/>
<path fill-rule="evenodd" clip-rule="evenodd" d="M17.7341 33.8244C17.7341 32.0181 16.2724 30.7339 14.4462 30.7339V30.7489C12.6314 30.7489 11.1659 32.0219 11.1659 33.8394C11.1659 35.6569 12.6428 36.9336 14.4576 36.9336C16.2724 36.9336 17.7341 35.6306 17.7341 33.8244ZM16.2207 34.5999C15.9075 35.2843 15.205 35.7116 14.4462 35.6794C13.9591 35.682 13.4924 35.4864 13.1556 35.1384C12.8188 34.7903 12.6416 34.3206 12.6656 33.8394C12.6663 33.0881 13.1286 32.4128 13.8336 32.1332C14.5386 31.8536 15.3447 32.0261 15.8699 32.5688C16.3951 33.1115 16.5339 33.9155 16.2207 34.5999Z" fill="white"/>
<path fill-rule="evenodd" clip-rule="evenodd" d="M19.8734 27.9784H18.3909V36.7842H19.7978V36.423C19.7982 36.2781 19.7906 36.1334 19.7751 35.9895H19.7978C20.2029 36.5993 20.8688 36.9534 21.5716 36.9327C23.1449 36.9327 24.3022 35.5641 24.3022 33.6095C24.3022 31.6548 23.2659 30.3063 21.6548 30.3063C20.9538 30.2743 20.2846 30.6181 19.8734 31.2214H19.847C19.8652 31.0441 19.874 30.8659 19.8734 30.6876V27.9784ZM22.8197 33.6496C22.8197 34.9018 22.1238 35.6082 21.3068 35.6082L21.3257 35.6243C20.3348 35.6243 19.8432 34.657 19.8432 33.6777C19.8432 32.2649 20.5807 31.6709 21.3371 31.6709C22.2108 31.6709 22.8197 32.3973 22.8197 33.6496Z" fill="white"/>
<path fill-rule="evenodd" clip-rule="evenodd" d="M26.9161 27.9784H25.6158V29.2919H26.9161V27.9784ZM26.9295 30.3073H25.6158V36.2447H26.9295V30.3073Z" fill="white"/>
<path fill-rule="evenodd" clip-rule="evenodd" d="M34.1545 33.8244C34.1545 32.0181 32.6924 30.7339 30.8704 30.7339H30.859C29.0484 30.7339 27.5863 32.0069 27.5863 33.8244C27.5863 35.6418 29.0712 36.9336 30.8818 36.9336C32.6924 36.9336 34.1545 35.6306 34.1545 33.8244ZM30.8591 35.6644C31.6174 35.7043 32.3238 35.2822 32.6424 34.5988L30.8591 35.6644Z" fill="white"/>
<path d="M35.497 32.2243H34.8114V31.0545H35.5237V29.3561H36.818V31.0545H38.0119V32.2243H36.818V34.5151C36.7949 34.828 36.8985 35.136 37.1001 35.354C37.3017 35.572 37.5799 35.6769 37.858 35.6398C37.9378 35.641 38.0175 35.6322 38.0955 35.6136V36.8996C37.9629 36.9239 37.8286 36.9352 37.6942 36.9333C36.9618 36.9333 35.507 36.6896 35.507 34.7138" fill="white"/>
<path fill-rule="evenodd" clip-rule="evenodd" d="M41.3695 27.9784H40.0659V29.2919H41.3695V27.9784ZM41.3796 30.3073H40.0659V36.2447H41.3796V30.3073Z" fill="white"/>
<path d="M45.6908 30.7366C46.4768 30.7009 47.2408 31.0195 47.7967 31.6149L47.1895 32.6208C46.8001 32.2256 46.2872 31.9995 45.7505 31.9865C45.2967 31.9746 44.8585 32.1645 44.5406 32.5109C44.2226 32.8574 44.0532 33.3294 44.0728 33.8144C44.0581 34.3078 44.2343 34.7858 44.5597 35.136C44.8851 35.4861 45.3311 35.6774 45.7926 35.6648C46.4007 35.6299 46.9771 35.3637 47.4177 34.9141L47.9477 35.9575C47.3475 36.5922 46.5348 36.9436 45.6908 36.9334C43.8622 36.9334 42.6934 35.5559 42.6934 33.8406C42.6827 32.9974 42.9987 32.1871 43.5665 31.602C44.1343 31.0168 44.9033 30.709 45.6908 30.7516" fill="white"/>
</svg>
