<svg width="103" height="39" viewBox="0 0 103 39" fill="none" xmlns="http://www.w3.org/2000/svg">
<path d="M0 9.13464H3.06842V18.2709H4.58899L7.56384 13.9413H10.9676L7.08037 19.4231V19.4735L11.451 26.2006H7.92253L4.66307 20.843H3.06842V26.2006H0" fill="white"/>
<path fill-rule="evenodd" clip-rule="evenodd" d="M19.8462 18.4482H19.4359C17.4274 18.4482 12.1246 18.7196 12.1246 22.4884C12.1246 24.8702 14.1097 26.2006 16.3137 26.2006C19.1233 26.2006 20.0924 24.0976 20.069 24.0976H20.1159C20.0834 24.3754 20.0664 24.6547 20.0651 24.9343V25.9142H22.9021V18.4708C22.9021 15.4596 21.0146 13.7297 17.7713 13.7297C16.0327 13.7145 14.3329 14.2245 12.9101 15.1882L14.0824 17.3138C14.0824 17.3138 15.7041 16.1832 17.4743 16.1832C18.8263 16.1832 19.8462 16.7183 19.8462 18.2824V18.4482ZM19.8775 20.7585C19.8775 22.2057 18.713 23.8866 17.0913 23.8866L17.0796 23.9054C15.8213 23.9054 15.2156 23.1592 15.2156 22.364C15.2156 20.6869 17.7713 20.4796 19.3343 20.4796H19.8775V20.7585Z" fill="white"/>
<path d="M26.27 9.13464H29.286V21.8388C29.286 23.1708 29.7417 23.5057 30.5295 23.5057C30.7689 23.5057 30.9851 23.4826 30.9851 23.4826V26.1313C30.6678 26.1757 30.3479 26.1988 30.0274 26.2006C28.3553 26.2006 26.27 25.7732 26.27 22.2892" fill="white"/>
<path fill-rule="evenodd" clip-rule="evenodd" d="M43.7833 19.3939C43.7833 16.2394 41.9236 13.7407 38.459 13.7407L38.4172 13.7294C34.8537 13.7294 32.3323 16.2997 32.3323 19.963C32.3323 23.3512 34.8157 26.2005 38.7975 26.2005C40.5609 26.2111 42.272 25.6067 43.6312 24.4932L42.4903 22.3713C41.5057 23.1624 40.2917 23.6206 39.0257 23.6791C37.2344 23.6791 35.6105 22.605 35.4204 20.5246H43.711C43.711 20.5246 43.7833 19.7407 43.7833 19.3939ZM38.3487 16.0171C39.6684 16.0171 40.68 16.8839 40.7294 18.4932H35.4736C35.755 16.9517 36.8275 16.0171 38.3487 16.0171Z" fill="white"/>
<path fill-rule="evenodd" clip-rule="evenodd" d="M49.1515 9.13464H46.4879L46.4777 11.8497H49.1515V9.13464ZM49.172 13.9403H46.4777V26.2006H49.172V13.9403Z" fill="white"/>
<path fill-rule="evenodd" clip-rule="evenodd" d="M60.9048 15.104C60.9048 15.104 60.0694 13.5802 57.3854 13.5802L57.4047 13.5917C54.187 13.5917 51.8665 16.083 51.8665 19.8924C51.8665 23.6218 53.9742 26.197 57.281 26.197C58.8461 26.2605 60.32 25.4717 61.1175 24.1437H61.1639C61.1327 24.3965 61.1172 24.651 61.1175 24.9056V25.8961H63.9911V9.13464H60.928V14.4183C60.928 14.7954 60.9551 15.104 60.9551 15.104H60.9048ZM61.044 19.8619C61.044 22.5285 59.5589 23.6714 57.9771 23.6714V23.6637C56.1787 23.6637 54.9334 22.1705 54.9334 19.8848C54.9334 17.5039 56.3257 16.1592 58.0003 16.1592C60.0385 16.1592 61.044 17.9991 61.044 19.8619Z" fill="white"/>
<path d="M69.5254 18.3322C69.4719 15.2326 71.3296 12.402 74.244 11.1425V8.47827C69.7386 9.73996 66.649 13.7636 66.6864 18.3208C66.6472 21.113 67.769 23.8025 69.7976 25.7799C71.8262 27.7574 74.59 28.8555 77.4629 28.8255V26.4163C73.081 26.4163 69.5098 22.9451 69.5098 18.3322" fill="white"/>
<path d="M90.8207 13.6856H93.9227V15.0514C93.9223 15.322 93.9059 15.5923 93.8737 15.8612H93.9227C94.8096 14.3102 96.5888 13.358 98.5042 13.4095C101.365 13.4095 103 14.7753 103 17.8876V25.4742H99.808V18.4958C99.808 17.0628 99.3993 16.0926 97.7645 16.0926C96.1435 16.0788 94.717 17.0668 94.2946 18.4958C94.1254 19.006 94.0481 19.5378 94.0658 20.0706V25.4742H90.8493" fill="#F7DB25"/>
<rect x="76.6116" width="2.70651" height="18.1001" fill="#F7DB25"/>
<path d="M81.212 8.04443V10.767C84.1343 12.054 85.997 14.9465 85.9434 18.1139C85.9434 22.8278 82.3624 26.3749 77.9648 26.3749V28.8252C80.8468 28.8611 83.6213 27.7429 85.6593 25.7241C87.6974 23.7053 88.8262 20.957 88.79 18.1023C88.8276 13.4454 85.7296 9.33372 81.212 8.04443" fill="#F7DB25"/>
<path fill-rule="evenodd" clip-rule="evenodd" d="M1.3933 30.1968H0V39H1.52563V36.3506C1.52563 36.0294 1.50228 35.8087 1.50228 35.8087H1.52563C1.93839 36.3737 2.59137 36.697 3.27699 36.6757C4.88435 36.6757 6.08695 35.3069 6.08695 33.3519C6.08695 31.397 5.01667 30.0482 3.36261 30.0482C2.57247 30.0033 1.82005 30.4006 1.3933 31.0879H1.36995C1.38518 30.9439 1.39297 30.7992 1.3933 30.6544V30.1968ZM4.55743 33.3921C4.55743 34.6445 3.84131 35.351 3.00066 35.351L3.02012 35.3671C2.01212 35.3671 1.49839 34.3997 1.49839 33.4202C1.49839 32.0072 2.25342 31.4131 3.0318 31.4131C3.93472 31.4131 4.55743 32.1397 4.55743 33.3921Z" fill="white"/>
<path d="M7.43958 30.1148H8.78223V31.1681C8.78184 31.3123 8.77468 31.4563 8.76081 31.5996H8.78223C9.00147 30.7124 9.72441 30.0829 10.5677 30.0448C10.6526 30.0455 10.7374 30.0533 10.8212 30.0681V31.5685C10.7113 31.5501 10.6003 31.541 10.4891 31.5413C9.77024 31.5447 9.14256 32.0718 8.95721 32.8279C8.87106 33.151 8.83013 33.4865 8.83579 33.8229V36.2445H7.43958" fill="white"/>
<path fill-rule="evenodd" clip-rule="evenodd" d="M18.2608 33.8242C18.2608 32.018 16.7557 30.7338 14.8753 30.7338V30.7488C13.0066 30.7488 11.4976 32.0218 11.4976 33.8393C11.4976 35.6567 13.0183 36.9335 14.887 36.9335C16.7557 36.9335 18.2608 35.6305 18.2608 33.8242ZM16.7025 34.5998C16.38 35.2842 15.6567 35.7115 14.8753 35.6793C14.3737 35.6819 13.8931 35.4863 13.5463 35.1382C13.1995 34.7902 13.0171 34.3204 13.0418 33.8393C13.0425 33.088 13.5186 32.4126 14.2445 32.1331C14.9705 31.8535 15.8005 32.0259 16.3413 32.5687C16.882 33.1114 17.0251 33.9154 16.7025 34.5998Z" fill="white"/>
<path fill-rule="evenodd" clip-rule="evenodd" d="M20.4637 27.9783H18.9371V36.7841H20.3859V36.4229C20.3863 36.278 20.3785 36.1333 20.3625 35.9894H20.3859C20.803 36.5992 21.4887 36.9533 22.2123 36.9326C23.8324 36.9326 25.0241 35.5639 25.0241 33.6093C25.0241 31.6547 23.957 30.3061 22.298 30.3061C21.5762 30.2742 20.8871 30.6179 20.4637 31.2212H20.4365C20.4552 31.044 20.4643 30.8658 20.4637 30.6874V27.9783ZM23.4975 33.6495C23.4975 34.9017 22.7809 35.6081 21.9397 35.6081L21.9592 35.6241C20.9389 35.6241 20.4326 34.6569 20.4326 33.6776C20.4326 32.2648 21.192 31.6708 21.9709 31.6708C22.8705 31.6708 23.4975 32.3972 23.4975 33.6495Z" fill="white"/>
<path fill-rule="evenodd" clip-rule="evenodd" d="M27.7156 27.9783H26.3767V29.2918H27.7156V27.9783ZM27.7294 30.3072H26.3767V36.2446H27.7294V30.3072Z" fill="white"/>
<path fill-rule="evenodd" clip-rule="evenodd" d="M35.169 33.8242C35.169 32.018 33.6635 30.7338 31.7874 30.7338H31.7757C29.9113 30.7338 28.4058 32.0068 28.4058 33.8242C28.4058 35.6417 29.9347 36.9335 31.7991 36.9335C33.6635 36.9335 35.169 35.6305 35.169 33.8242ZM31.7758 35.6643C32.5566 35.7042 33.284 35.2821 33.612 34.5987L31.7758 35.6643Z" fill="white"/>
<path d="M36.5513 32.2241H35.8453V31.0544H36.5788V29.356H37.9115V31.0544H39.1409V32.2241H37.9115V34.5149C37.8878 34.8279 37.9944 35.1358 38.202 35.3538C38.4096 35.5718 38.6961 35.6768 38.9825 35.6397C39.0646 35.6408 39.1466 35.632 39.227 35.6135V36.8995C39.0904 36.9238 38.9521 36.9351 38.8137 36.9332C38.0596 36.9332 36.5616 36.6895 36.5616 34.7136" fill="white"/>
<path fill-rule="evenodd" clip-rule="evenodd" d="M42.5983 27.9783H41.256V29.2918H42.5983V27.9783ZM42.6086 30.3072H41.256V36.2446H42.6086V30.3072Z" fill="white"/>
<path d="M47.048 30.7365C47.8574 30.7008 48.6441 31.0194 49.2165 31.6148L48.5913 32.6207C48.1903 32.2255 47.6621 31.9994 47.1095 31.9863C46.6422 31.9745 46.1911 32.1644 45.8636 32.5108C45.5362 32.8573 45.3618 33.3292 45.3819 33.8142C45.3669 34.3077 45.5482 34.7857 45.8833 35.1359C46.2184 35.486 46.6776 35.6773 47.1528 35.6646C47.779 35.6298 48.3725 35.3635 48.8262 34.914L49.3719 35.9574C48.7539 36.5921 47.9171 36.9435 47.048 36.9333C45.1651 36.9333 43.9616 35.5558 43.9616 33.8405C43.9506 32.9973 44.276 32.187 44.8607 31.6018C45.4453 31.0167 46.2371 30.7089 47.048 30.7515" fill="white"/>
</svg>
