<svg width="100" height="38" viewBox="0 0 100 38" fill="none" xmlns="http://www.w3.org/2000/svg">
<path d="M0 8.90039H2.97905V17.8024H4.45533L7.34353 13.5838H10.6481L6.87415 18.925V18.9742L11.1175 25.5287H7.69178L4.52725 20.3085H2.97905V25.5287H0" fill="white"/>
<path fill-rule="evenodd" clip-rule="evenodd" d="M19.2682 17.9752H18.8698C16.9198 17.9752 11.7715 18.2396 11.7715 21.9117C11.7715 24.2325 13.6988 25.5288 15.8385 25.5288C18.5663 25.5288 19.5072 23.4797 19.4844 23.4797H19.53C19.4984 23.7504 19.482 24.0225 19.4807 24.2949V25.2497H22.235V17.9972C22.235 15.0632 20.4026 13.3776 17.2536 13.3776C15.5658 13.3629 13.9154 13.8598 12.5341 14.7988L13.6722 16.8699C13.6722 16.8699 15.2467 15.7682 16.9653 15.7682C18.278 15.7682 19.2682 16.2897 19.2682 17.8136V17.9752ZM19.2985 20.2262C19.2985 21.6363 18.168 23.2741 16.5935 23.2741L16.5821 23.2925C15.3605 23.2925 14.7724 22.5654 14.7724 21.7905C14.7724 20.1564 17.2536 19.9545 18.7712 19.9545H19.2985V20.2262Z" fill="white"/>
<path d="M25.5049 8.90039H28.433V21.2788C28.433 22.5767 28.8754 22.903 29.6403 22.903C29.8727 22.903 30.0827 22.8805 30.0827 22.8805V25.4612C29.7746 25.5045 29.464 25.527 29.1529 25.5287C27.5295 25.5287 25.5049 25.1124 25.5049 21.7177" fill="white"/>
<path fill-rule="evenodd" clip-rule="evenodd" d="M42.5081 18.8966C42.5081 15.823 40.7026 13.3883 37.3389 13.3883L37.2983 13.3773C33.8386 13.3773 31.3906 15.8818 31.3906 19.4512C31.3906 22.7525 33.8017 25.5287 37.6675 25.5287C39.3796 25.539 41.0408 24.9501 42.3604 23.8651L41.2527 21.7977C40.2969 22.5685 39.1183 23.015 37.8891 23.072C36.15 23.072 34.5734 22.0254 34.3888 19.9983H42.438C42.438 19.9983 42.5081 19.2345 42.5081 18.8966ZM37.2318 15.6064C38.5131 15.6064 39.4952 16.451 39.5432 18.019H34.4405C34.7137 16.5171 35.7549 15.6064 37.2318 15.6064Z" fill="white"/>
<path fill-rule="evenodd" clip-rule="evenodd" d="M47.72 8.90039H45.134L45.124 11.5458H47.72V8.90039ZM47.7399 13.5828H45.124V25.5287H47.7399V13.5828Z" fill="white"/>
<path fill-rule="evenodd" clip-rule="evenodd" d="M59.1308 14.7167C59.1308 14.7167 58.3198 13.232 55.7139 13.232L55.7327 13.2431C52.6086 13.2431 50.3557 15.6706 50.3557 19.3823C50.3557 23.0161 52.4021 25.5253 55.6125 25.5253C57.132 25.5871 58.563 24.8185 59.3373 23.5246H59.3824C59.352 23.7709 59.337 24.0188 59.3373 24.267V25.232H62.1272V8.90039H59.1533V14.0486C59.1533 14.416 59.1796 14.7167 59.1796 14.7167H59.1308ZM59.266 19.3526C59.266 21.9509 57.8241 23.0644 56.2884 23.0644V23.0569C54.5424 23.0569 53.3333 21.6019 53.3333 19.3749C53.3333 17.0551 54.6851 15.7448 56.3109 15.7448C58.2897 15.7448 59.266 17.5376 59.266 19.3526Z" fill="white"/>
<path d="M67.5003 17.8621C67.4483 14.842 69.252 12.0839 72.0815 10.8568V8.26086C67.7072 9.4902 64.7076 13.4107 64.744 17.851C64.7059 20.5716 65.795 23.1921 67.7645 25.1189C69.7341 27.0457 72.4174 28.1156 75.2066 28.0864V25.7389C70.9524 25.7389 67.4851 22.3568 67.4851 17.8621" fill="white"/>
<path d="M88.1754 13.3347H91.1871V14.6655C91.1867 14.9291 91.1708 15.1925 91.1395 15.4545H91.1871C92.0481 13.9433 93.7756 13.0156 95.6352 13.0657C98.4128 13.0657 100 14.3965 100 17.4289V24.8211H96.901V18.0216C96.901 16.6254 96.5042 15.68 94.917 15.68C93.3432 15.6666 91.9583 16.6292 91.5482 18.0216C91.3839 18.5187 91.3088 19.0369 91.326 19.556V24.8211H88.2032" fill="#C65300"/>
<rect x="74.3801" width="2.62768" height="17.636" fill="#C65300"/>
<path d="M78.8466 7.83826V10.491C81.6837 11.745 83.4922 14.5633 83.4401 17.6496C83.4401 22.2426 79.9635 25.6987 75.694 25.6987V28.0862C78.492 28.1211 81.1857 27.0316 83.1644 25.0646C85.143 23.0976 86.239 20.4197 86.2039 17.6382C86.2403 13.1008 83.2326 9.09449 78.8466 7.83826" fill="#C65300"/>
<path fill-rule="evenodd" clip-rule="evenodd" d="M1.35272 29.4225H0V38H1.48119V35.4185C1.48119 35.1056 1.45852 34.8905 1.45852 34.8905H1.48119C1.88193 35.441 2.51589 35.756 3.18154 35.7353C4.74208 35.7353 5.90966 34.4016 5.90966 32.4968C5.90966 30.592 4.87055 29.2778 3.26467 29.2778C2.49754 29.234 1.76704 29.6211 1.35272 30.2908H1.33005C1.34483 30.1505 1.3524 30.0095 1.35272 29.8684V29.4225ZM4.42469 32.5359C4.42469 33.7562 3.72943 34.4446 2.91326 34.4446L2.93216 34.4602C1.95351 34.4602 1.45474 33.5176 1.45474 32.5633C1.45474 31.1865 2.18778 30.6076 2.94349 30.6076C3.82012 30.6076 4.42469 31.3156 4.42469 32.5359Z" fill="white"/>
<path d="M7.2229 29.3426H8.52645V30.3689C8.52607 30.5094 8.51912 30.6497 8.50565 30.7893H8.52645C8.73931 29.9249 9.44119 29.3115 10.2599 29.2744C10.3424 29.2751 10.4247 29.2827 10.506 29.2971V30.759C10.3994 30.7411 10.2916 30.7322 10.1836 30.7325C9.48569 30.7358 8.87628 31.2495 8.69633 31.9861C8.61269 32.301 8.57295 32.6279 8.57845 32.9557V35.3152H7.2229" fill="white"/>
<path fill-rule="evenodd" clip-rule="evenodd" d="M17.729 32.9569C17.729 31.197 16.2677 29.9457 14.4421 29.9457V29.9603C12.6278 29.9603 11.1627 31.2007 11.1627 32.9715C11.1627 34.7424 12.6392 35.9864 14.4535 35.9864C16.2677 35.9864 17.729 34.7168 17.729 32.9569ZM16.2161 33.7126C15.9029 34.3794 15.2007 34.7958 14.4421 34.7644C13.9551 34.767 13.4885 34.5763 13.1518 34.2372C12.8151 33.8981 12.638 33.4404 12.662 32.9715C12.6627 32.2396 13.1249 31.5815 13.8297 31.3091C14.5345 31.0367 15.3403 31.2047 15.8653 31.7335C16.3904 32.2623 16.5292 33.0457 16.2161 33.7126Z" fill="white"/>
<path fill-rule="evenodd" clip-rule="evenodd" d="M19.8678 27.2609H18.3856V35.8409H19.7921V35.4889C19.7925 35.3478 19.785 35.2068 19.7695 35.0666H19.7921C20.1971 35.6607 20.8628 36.0057 21.5654 35.9856C23.1383 35.9856 24.2953 34.652 24.2953 32.7475C24.2953 30.843 23.2593 29.5291 21.6486 29.5291C20.9478 29.4979 20.2788 29.8329 19.8678 30.4207H19.8413C19.8595 30.248 19.8683 30.0743 19.8678 29.9006V27.2609ZM22.8131 32.7866C22.8131 34.0068 22.1174 34.695 21.3007 34.695L21.3197 34.7107C20.329 34.7107 19.8375 33.7682 19.8375 32.814C19.8375 31.4375 20.5748 30.8587 21.331 30.8587C22.2044 30.8587 22.8131 31.5665 22.8131 32.7866Z" fill="white"/>
<path fill-rule="evenodd" clip-rule="evenodd" d="M26.9084 27.2609H25.6085V28.5407H26.9084V27.2609ZM26.9218 29.5301H25.6085V35.3152H26.9218V29.5301Z" fill="white"/>
<path fill-rule="evenodd" clip-rule="evenodd" d="M34.1447 32.9569C34.1447 31.197 32.683 29.9457 30.8615 29.9457H30.8502C29.0401 29.9457 27.5784 31.186 27.5784 32.9569C27.5784 34.7278 29.0628 35.9864 30.8729 35.9864C32.683 35.9864 34.1447 34.7168 34.1447 32.9569ZM30.8502 34.7498C31.6083 34.7887 32.3145 34.3774 32.633 33.7115L30.8502 34.7498Z" fill="white"/>
<path d="M35.4867 31.3979H34.8013V30.2581H35.5134V28.6033H36.8073V30.2581H38.0008V31.3979H36.8073V33.63C36.7842 33.9349 36.8878 34.235 37.0893 34.4474C37.2908 34.6598 37.569 34.762 37.847 34.7259C37.9268 34.727 38.0064 34.7184 38.0844 34.7003V35.9533C37.9518 35.9771 37.8176 35.9881 37.6832 35.9862C36.951 35.9862 35.4967 35.7488 35.4967 33.8236" fill="white"/>
<path fill-rule="evenodd" clip-rule="evenodd" d="M41.3575 27.2609H40.0543V28.5407H41.3575V27.2609ZM41.3676 29.5301H40.0543V35.3152H41.3676V29.5301Z" fill="white"/>
<path d="M45.6777 29.9483C46.4635 29.9136 47.2273 30.224 47.7831 30.8041L47.176 31.7842C46.7867 31.3992 46.2739 31.1789 45.7374 31.1661C45.2837 31.1546 44.8457 31.3396 44.5278 31.6772C44.2099 32.0147 44.0406 32.4746 44.0602 32.9472C44.0455 33.4279 44.2216 33.8937 44.5469 34.2349C44.8723 34.5761 45.3181 34.7624 45.7795 34.7501C46.3874 34.7162 46.9637 34.4567 47.4041 34.0187L47.9339 35.0354C47.334 35.6538 46.5215 35.9962 45.6777 35.9862C43.8496 35.9862 42.6812 34.6441 42.6812 32.9728C42.6705 32.1512 42.9864 31.3616 43.5541 30.7915C44.1217 30.2213 44.8904 29.9214 45.6777 29.9629" fill="white"/>
</svg>
