<svg width="50" height="47" viewBox="0 0 50 47" fill="none" xmlns="http://www.w3.org/2000/svg">
<path fill-rule="evenodd" clip-rule="evenodd" d="M25 1.49928C21.9669 1.49928 19.4993 3.9669 19.4993 7.00005C19.4993 10.0331 21.9669 12.5007 25 12.5007C28.0332 12.5007 30.5007 10.0331 30.5007 7.00005C30.5007 3.9669 28.0332 1.49928 25 1.49928ZM25 14C21.1402 14 18 10.8598 18 7.00005C18 3.1402 21.1402 0 25 0C28.8598 0 32 3.1402 32 7.00005C32 10.8598 28.8598 14 25 14Z" fill="#474747"/>
<path fill-rule="evenodd" clip-rule="evenodd" d="M22.4164 34C22.1554 34 21.8907 33.9711 21.6255 33.9109L10.531 31.3913C9.30791 31.1135 8.24448 30.3241 7.61349 29.2255C6.98241 28.1268 6.82983 26.7991 7.19471 25.5827C7.19623 25.5778 7.19776 25.5729 7.19929 25.568L8.17446 22.5351C8.30532 22.128 8.73665 21.9057 9.13821 22.0384C9.53957 22.1712 9.7588 22.6089 9.62783 23.016L8.65521 26.0411C8.41285 26.8558 8.51181 27.7092 8.93437 28.4447C9.35805 29.1824 10.0438 29.6914 10.865 29.8779L21.9595 32.3975C23.0369 32.6426 24.1078 31.9873 24.397 30.9064C24.5458 30.351 24.4664 29.7737 24.1737 29.2807C23.8811 28.7877 23.415 28.4467 22.8616 28.3204L14.869 26.4961C14.6518 26.4466 14.4667 26.3034 14.362 26.1039C14.2574 25.9045 14.2437 25.6687 14.3246 25.4582L14.8692 24.0404C15.0223 23.6413 15.4655 23.4439 15.8589 23.5993C16.2522 23.7547 16.4469 24.2043 16.2936 24.6033L16.0717 25.1811L23.1972 26.8074C24.1615 27.0275 24.9734 27.6217 25.4834 28.4805C25.9934 29.3393 26.1315 30.3453 25.8723 31.3129C25.4394 32.9298 24.0025 33.9999 22.4164 34Z" fill="#474747"/>
<path fill-rule="evenodd" clip-rule="evenodd" d="M12.7617 11C12.6884 11 12.6137 10.9895 12.5398 10.9672C12.1377 10.8461 11.9108 10.4255 12.0331 10.0277C12.6029 8.17648 13.9663 6.68963 15.7739 5.94842L17.9469 5.05753C18.3353 4.89843 18.7808 5.08062 18.9418 5.46468C19.1028 5.84874 18.9184 6.28921 18.5301 6.44842L16.3571 7.3393C14.9715 7.90736 13.9265 9.04708 13.4898 10.4662C13.3899 10.7909 13.0881 11 12.7617 11Z" fill="#474747"/>
<path fill-rule="evenodd" clip-rule="evenodd" d="M25.765 29C25.5812 29 25.3969 28.9293 25.2502 28.7859C24.9377 28.4802 24.9148 27.9601 25.1993 27.6241C25.6966 27.0369 26.3419 26.6339 27.0656 26.4589L34.2571 24.7199L34.0678 24.0676C33.942 23.634 34.1671 23.1729 34.5705 23.0377C34.9744 22.902 35.403 23.1444 35.5289 23.5779L35.9653 25.0816C36.0289 25.3009 36.0043 25.5387 35.8975 25.7376C35.7907 25.9365 35.6112 26.0783 35.4028 26.1288L27.4016 28.0634C26.9861 28.1639 26.6159 28.3947 26.3312 28.7311C26.1802 28.9094 25.973 29 25.765 29Z" fill="#474747"/>
<path fill-rule="evenodd" clip-rule="evenodd" d="M27.8703 33C26.8417 33 25.8548 32.5564 25.175 31.7576C24.909 31.4451 24.9509 30.9794 25.2686 30.7177C25.5862 30.456 26.0594 30.4972 26.3254 30.8098C26.8134 31.3831 27.577 31.6381 28.3182 31.4746L39.2067 29.0758C40.0128 28.8983 40.6856 28.4137 41.1015 27.7114C41.5161 27.0111 41.6134 26.1987 41.3756 25.4232L40.2301 21.9673C40.1014 21.5797 40.3167 21.163 40.7106 21.0365C41.1042 20.9103 41.5279 21.1218 41.6563 21.5095L42.8044 24.9727C42.8059 24.9773 42.8075 24.9821 42.8089 24.9867C43.1671 26.1448 43.0172 27.4088 42.3979 28.4547C41.7786 29.5005 40.7349 30.2521 39.5345 30.5166L28.646 32.9154C28.3876 32.9722 28.1275 33 27.8703 33Z" fill="#474747"/>
<path fill-rule="evenodd" clip-rule="evenodd" d="M37.2382 11C36.9119 11 36.6102 10.7909 36.5102 10.4662C36.0735 9.04708 35.0284 7.90736 33.6429 7.3393L31.47 6.44842C31.0816 6.28921 30.8972 5.84874 31.0583 5.46468C31.2193 5.08062 31.6646 4.89843 32.053 5.05753L34.2259 5.94842C36.0336 6.68953 37.3971 8.17648 37.9668 10.0277C38.0892 10.4255 37.8624 10.8461 37.4602 10.9672C37.3863 10.9895 37.3117 11 37.2382 11Z" fill="#474747"/>
<path fill-rule="evenodd" clip-rule="evenodd" d="M14.4291 42C14.4163 42 14.4033 41.9991 14.3903 41.9971C14.1545 41.9626 13.9806 41.6222 14.0017 41.237L14.1446 38.6378C14.1657 38.2526 14.3736 37.968 14.6097 38.0029C14.8455 38.0375 15.0195 38.3778 14.9983 38.7631L14.8555 41.3622C14.8355 41.7262 14.6485 42 14.4291 42Z" fill="#474747"/>
<path fill-rule="evenodd" clip-rule="evenodd" d="M16.4473 34C16.4339 34 16.4204 33.9989 16.4068 33.9964C16.1611 33.9541 15.9798 33.5366 16.0018 33.0642L16.1084 30.7822C16.1304 30.3097 16.347 29.9609 16.5932 30.0035C16.839 30.0459 17.0203 30.4634 16.9982 30.9359L16.8916 33.2178C16.8708 33.6642 16.6759 34 16.4473 34Z" fill="#474747"/>
<path fill-rule="evenodd" clip-rule="evenodd" d="M35.5709 42C35.3515 42 35.1645 41.7262 35.1445 41.3622L35.0017 38.7631C34.9805 38.3778 35.1545 38.0374 35.3903 38.0028C35.6267 37.9684 35.8343 38.2525 35.8554 38.6378L35.9983 41.2369C36.0195 41.6222 35.8455 41.9626 35.6097 41.9971C35.5967 41.9991 35.5837 42 35.5709 42Z" fill="#474747"/>
<path fill-rule="evenodd" clip-rule="evenodd" d="M33.5614 34C33.3387 34 33.1482 33.6838 33.126 33.2607L33.0021 30.8994C32.9785 30.4492 33.1545 30.0482 33.3953 30.004C33.6357 29.9596 33.8503 30.2891 33.874 30.7394L33.9979 33.1006C34.0215 33.5509 33.8454 33.9518 33.6047 33.9961C33.5901 33.9987 33.5757 34 33.5614 34Z" fill="#474747"/>
<mask id="mask0" style="mask-type:alpha" maskUnits="userSpaceOnUse" x="0" y="33" width="20" height="14">
<path fill-rule="evenodd" clip-rule="evenodd" d="M0 33.0308H19.987V47H0V33.0308Z" fill="white"/>
</mask>
<g mask="url(#mask0)">
<path fill-rule="evenodd" clip-rule="evenodd" d="M7.43985 37.3165L8.89522 40.1083C9.0703 40.444 8.98025 40.8604 8.68326 41.089L5.7499 43.3473L10.5867 41.3639L9.16859 38.8654C9.06316 38.6797 9.03804 38.4574 9.09934 38.2518C9.16055 38.0464 9.30266 37.8763 9.4914 37.7826L13.0269 36.0269L7.43985 37.3165ZM0.754117 47C0.488791 47 0.234017 46.856 0.0969315 46.6065C-0.0883952 46.2692 -0.00125948 45.8433 0.300952 45.6107L7.26125 40.2522L5.64397 37.1499C5.53311 36.9373 5.52557 36.6838 5.62346 36.4648C5.72145 36.2457 5.91361 36.086 6.14316 36.033L19.0674 33.0498C19.441 32.9634 19.8181 33.1779 19.9446 33.548C20.071 33.9181 19.9064 34.3266 19.562 34.4977L10.8802 38.809L12.3285 41.3604C12.4385 41.5543 12.4608 41.7878 12.3895 41.9998C12.3181 42.212 12.1603 42.3818 11.9569 42.4652L1.03402 46.9446C0.94256 46.9822 0.847685 47 0.754117 47Z" fill="#474747"/>
</g>
<path fill-rule="evenodd" clip-rule="evenodd" d="M39.4065 41.3514L44.2464 43.3394L41.3111 41.0761C41.0138 40.8468 40.9238 40.4295 41.0989 40.0931L42.5553 37.2952L36.9647 36.0028L40.5024 37.7623C40.6912 37.8563 40.8334 38.0266 40.8948 38.2326C40.956 38.4386 40.931 38.6613 40.8254 38.8474L39.4065 41.3514ZM49.2453 47C49.1517 47 49.0569 46.9822 48.9653 46.9445L38.0351 42.4552C37.8318 42.3717 37.6738 42.2014 37.6025 41.9888C37.5311 41.7763 37.5533 41.5423 37.6635 41.3479L39.1126 38.7909L30.4253 34.4701C30.0806 34.2986 29.9159 33.8893 30.0424 33.5184C30.1689 33.1474 30.5464 32.9327 30.9201 33.019L43.8528 36.0088C44.0825 36.0619 44.2748 36.222 44.3728 36.4415C44.4708 36.6612 44.4632 36.9151 44.3524 37.1281L42.7341 40.2373L49.6988 45.6076C50.0012 45.8408 50.0885 46.2676 49.903 46.6057C49.7658 46.8558 49.5108 47 49.2453 47Z" fill="#474747"/>
<path fill-rule="evenodd" clip-rule="evenodd" d="M11.8047 15.5806C11.9902 15.5806 12.1694 15.6506 12.3059 15.7779L15.108 18.3886L11.9985 13.7537L10.0314 16.0339C9.79481 16.3081 9.39341 16.3692 9.08589 16.1776L6.04943 14.2866L9.5112 18.0016L11.2311 15.856C11.3588 15.6964 11.5475 15.5974 11.7514 15.5826C11.7693 15.5812 11.787 15.5806 11.8047 15.5806ZM19.265 24C19.0847 24 18.9046 23.934 18.7638 23.8028L11.883 17.3921L10.1267 19.5833C9.99325 19.7499 9.79383 19.8501 9.58049 19.8581C9.36852 19.8659 9.16076 19.7809 9.01524 19.6246L1.19708 11.2349C0.945913 10.9653 0.933369 10.5516 1.16778 10.2674C1.40209 9.98319 1.81104 9.91641 2.12365 10.1112L9.32902 14.5984L11.5151 12.0645C11.6648 11.891 11.8862 11.7974 12.1162 11.8109C12.3451 11.8248 12.5545 11.9446 12.6822 12.135L19.8754 22.8567C20.0834 23.1665 20.0258 23.5829 19.7415 23.8247C19.6039 23.9418 19.4343 24 19.265 24Z" fill="#474747"/>
<path fill-rule="evenodd" clip-rule="evenodd" d="M38.5209 13.8388L35.0588 18.6178L38.2443 15.9232C38.4018 15.7899 38.6076 15.7254 38.8141 15.7445C39.0208 15.7636 39.2107 15.8646 39.3404 16.0244L41.1323 18.2319L44.7391 14.4099L41.5754 16.3554C41.2552 16.5524 40.8369 16.4897 40.5904 16.2076L38.5209 13.8388ZM30.7659 24C30.5803 24 30.3948 23.9337 30.2486 23.8017C29.9631 23.5438 29.9176 23.116 30.1428 22.8051L37.8416 12.1778C37.9782 11.9892 38.1951 11.873 38.4297 11.8624C38.6636 11.8513 38.8911 11.9481 39.0446 12.1239L41.3221 14.7307L48.8293 10.1143C49.155 9.91411 49.5809 9.98261 49.8253 10.2751C50.0694 10.5675 50.0563 10.9931 49.7947 11.2704L41.6492 19.9016C41.4975 20.0622 41.2846 20.1494 41.0602 20.1418C40.8378 20.1336 40.6301 20.0304 40.4911 19.8591L38.64 17.5788L31.2643 23.8181C31.1206 23.9396 30.943 24 30.7659 24Z" fill="#474747"/>
</svg>
