<svg width="24" height="62" viewBox="0 0 24 62" fill="none" xmlns="http://www.w3.org/2000/svg">
<mask id="mask0" style="mask-type:alpha" maskUnits="userSpaceOnUse" x="6" y="0" width="11" height="12">
<path fill-rule="evenodd" clip-rule="evenodd" d="M6.11084 0.0690918H16.8816V11.997H6.11084V0.0690918Z" fill="white"/>
</mask>
<g mask="url(#mask0)">
<path fill-rule="evenodd" clip-rule="evenodd" d="M11.4962 1.36128C9.2116 1.36128 7.35278 3.45703 7.35278 6.03297C7.35278 8.60891 9.2116 10.7047 11.4962 10.7047C13.7809 10.7047 15.6397 8.60891 15.6397 6.03297C15.6397 3.45703 13.7809 1.36128 11.4962 1.36128ZM11.4962 11.997C8.52694 11.997 6.11084 9.32152 6.11084 6.03297C6.11084 2.74442 8.52694 0.0689697 11.4962 0.0689697C14.4659 0.0689697 16.8816 2.74442 16.8816 6.03297C16.8816 9.32152 14.4659 11.997 11.4962 11.997Z" fill="#2E2E2E"/>
</g>
<path fill-rule="evenodd" clip-rule="evenodd" d="M18.8138 62C18.75 62 18.6902 61.9987 18.6348 61.9961C17.5001 61.94 16.083 61.244 15.6525 59.8481C14.6071 56.4582 12.4778 48.7864 12.1366 46.209C11.7167 43.0378 12.1042 34.2087 12.131 33.612C12.1217 33.4442 11.85 33.2535 11.5014 33.2535C11.1462 33.2535 10.8709 33.4508 10.8709 33.6206C10.8734 37.3383 10.8786 46.0044 10.8678 46.1682C10.7019 48.6788 8.5912 55.8166 7.34751 59.8481C6.91666 61.244 5.49995 61.94 4.36584 61.9961C3.69158 62.0283 2.33175 61.8576 1.65147 61.5965C0.774634 61.2599 -0.359105 60.1858 0.109488 58.6066C1.52894 53.8221 3.22627 47.6207 3.33767 45.8896C3.34095 45.8391 3.3395 45.645 3.33621 45.4958L3.33585 37.0701H4.61217V45.482C4.614 45.5533 4.61965 45.8403 4.61144 45.9685C4.45901 48.3327 1.85513 57.203 1.33494 58.9572C1.02607 59.9971 2.10511 60.4249 2.11623 60.429C2.57097 60.6038 3.73625 60.7719 4.30203 60.744C4.88786 60.7152 5.85713 60.3558 6.12607 59.4846C7.11431 56.2806 9.43084 48.5613 9.59439 46.0876C9.6015 45.8063 9.59676 36.9922 9.59457 33.621C9.59457 32.727 10.4501 32 11.5014 32C12.5522 32 13.4077 32.727 13.4077 33.6206L13.4069 33.6485C13.4026 33.7411 12.9909 42.9424 13.4022 46.0475C13.7299 48.521 15.8673 56.2215 16.874 59.4847C17.1426 60.3558 18.1122 60.7152 18.6984 60.744C19.266 60.7716 20.4291 60.6038 20.8842 60.429C20.895 60.4249 21.9736 59.9971 21.6653 58.957C20.6689 55.5973 18.6692 48.1291 18.3928 46.0088C18.089 43.6782 18.3782 37.4841 18.3908 37.2214L19.6657 37.2799C19.6628 37.3432 19.369 43.6268 19.6589 45.8496C19.9231 47.8771 21.9295 55.3664 22.8906 58.6066C23.359 60.1858 22.2254 61.2599 21.349 61.5964C20.7247 61.8361 19.5267 62 18.8138 62Z" fill="#2C2C2C"/>
<path fill-rule="evenodd" clip-rule="evenodd" d="M21.3048 38H20.5083C19.0224 38 17.8137 36.9172 17.8137 35.5862V34.768L17.8025 17.2009L19.0957 17.2002L19.107 35.5862C19.107 36.2265 19.7359 36.7474 20.5083 36.7474H21.3048C22.0778 36.7474 22.7067 36.2265 22.7067 35.5862V14.7218C22.7067 11.706 19.8636 9.25263 16.3688 9.25263H16V8H16.3688C20.5767 8 24 11.0154 24 14.7218V35.5862C24 36.9172 22.7908 38 21.3048 38Z" fill="#2C2C2C"/>
<path fill-rule="evenodd" clip-rule="evenodd" d="M3.49223 38H2.6955C1.20905 38 0 36.9172 0 35.5862V14.7218C0 11.0154 3.42403 8 7.63315 8H8V9.25263H7.63315C4.13759 9.25263 1.29369 11.706 1.29369 14.7218V35.5862C1.29369 36.2265 1.92242 36.7474 2.6955 36.7474H3.49223C4.26548 36.7474 4.89459 36.2265 4.89459 35.5862V34.768L4.90568 17.2002L6.19937 17.2009L6.18828 35.5862C6.18828 36.9172 4.97868 38 3.49223 38Z" fill="#2C2C2C"/>
</svg>
