<svg width="50" height="46" viewBox="0 0 50 46" fill="none" xmlns="http://www.w3.org/2000/svg">
<mask id="mask0" style="mask-type:alpha" maskUnits="userSpaceOnUse" x="11" y="0" width="22" height="13">
<path fill-rule="evenodd" clip-rule="evenodd" d="M11.1182 0H33V12.8937H11.1182V0Z" fill="white"/>
</mask>
<g mask="url(#mask0)">
<path fill-rule="evenodd" clip-rule="evenodd" d="M30.8744 12.8938C30.7823 12.8938 30.6885 12.8771 30.597 12.842C30.1797 12.6823 29.9659 12.2004 30.1191 11.7656C30.1965 11.5461 30.2708 11.3374 30.3417 11.1376C31.0397 9.17563 31.3902 8.1907 31.3902 6.43011C31.3902 4.50891 30.4355 2.8073 29.865 1.96216C28.0154 3.1351 27.1799 2.92165 25.8643 2.43604C24.9976 2.11579 23.8107 1.67742 21.4634 1.67742C16.4259 1.67742 13.2145 5.92619 12.6745 7.39057C12.5152 7.82293 12.0494 8.03876 11.6346 7.87269C11.2196 7.70663 11.0125 7.22143 11.172 6.78894C12.0447 4.42168 15.9592 3.3871e-06 21.4634 3.3871e-06C24.0874 3.3871e-06 25.4804 0.514412 26.4021 0.854928C27.5135 1.26534 27.8489 1.38947 29.5946 0.146358C29.9278 -0.0911364 30.3782 -0.0343837 30.648 0.278735C30.7439 0.390283 33 3.05039 33 6.43011C33 8.49166 32.5675 9.70709 31.8512 11.7207C31.7806 11.919 31.7068 12.1263 31.6301 12.3441C31.5103 12.6835 31.2023 12.8938 30.8744 12.8938Z" fill="#424242"/>
</g>
<path fill-rule="evenodd" clip-rule="evenodd" d="M23.88 27C22.1267 27 20.5021 26.5083 19.1822 25.578C18.8238 25.3254 18.7305 24.8191 18.9739 24.4469C19.2172 24.075 19.7049 23.9779 20.0635 24.2307C21.1374 24.9876 22.4216 25.3714 23.88 25.3714C26.1091 25.3714 27.8011 24.084 28.9092 21.545C29.79 19.5266 29.9569 17.457 29.9586 17.4363C29.976 17.2088 30.0848 16.9984 30.2582 16.8579C30.3024 16.8212 31.4311 15.8642 31.4311 14.2752C31.4311 13.6065 31.1575 13.1319 30.5947 12.8242C30.2909 12.6549 30.0231 12.6026 30.0205 12.6022C29.8016 12.5605 29.6036 12.4232 29.4872 12.2264C29.4723 12.2017 27.9135 9.62857 25.9718 9.62857C25.2801 9.62857 24.894 9.84449 24.3595 10.1435C23.3297 10.7194 22.0491 11.4352 18.5456 10.7087C18.3434 10.6994 17.1858 10.693 16.3983 11.7206C16.1286 12.0726 15.6353 12.1307 15.2961 11.8509C14.9571 11.5709 14.9008 11.0587 15.1706 10.7068C16.56 8.89354 18.6388 9.08083 18.7262 9.08951C18.753 9.09223 18.7797 9.09644 18.8061 9.10186C21.7924 9.72941 22.7192 9.21098 23.6154 8.70979C24.2101 8.37701 24.8845 8 25.9718 8C28.3349 8 30.0857 10.2696 30.6402 11.088C30.8282 11.1479 31.0728 11.2422 31.3314 11.3863C32.4054 11.9734 33 13.0005 33 14.2752C33 16.1264 31.9863 17.3872 31.4891 17.8942C31.4042 18.613 31.1301 20.3851 30.356 22.1762C28.992 25.3319 26.7527 27 23.88 27Z" fill="#444444"/>
<path fill-rule="evenodd" clip-rule="evenodd" d="M42.6654 40C41.3737 40 39.8594 39.8814 38.0829 39.6024C37.7562 39.5511 37.492 39.308 37.4118 38.9856L36.315 34.5735C36.2048 34.1302 36.4728 33.681 36.9136 33.5703C37.3533 33.4595 37.801 33.7289 37.9111 34.1722L38.8745 38.0474C41.3648 38.3956 46.1951 38.7788 48.0165 36.8859C48.1562 36.7451 48.2451 36.6234 48.3003 36.5332C47.7256 34.7176 44.6204 25.0373 43.0175 22.7106C41.7171 20.8231 38.3835 19.9324 35.705 19.2166C34.9452 19.0137 34.2278 18.8219 33.577 18.6169C33.1435 18.4804 32.9021 18.0163 33.0378 17.5803C33.1737 17.1441 33.6358 16.9015 34.0686 17.038C34.6851 17.2322 35.3857 17.4194 36.1274 17.6175C39.2197 18.4438 42.7248 19.3803 44.3698 21.7685C46.2732 24.5316 49.8126 35.851 49.9624 36.3315C50.0055 36.4698 50.0117 36.617 49.9803 36.7586C49.9571 36.8641 49.8092 37.422 49.1896 38.0457C48.2586 39.0135 46.3899 40 42.6654 40Z" fill="#444444"/>
<path fill-rule="evenodd" clip-rule="evenodd" d="M46.0376 46H22.4299C21.7161 46 21.0416 45.6943 20.579 45.1615C20.1155 44.6273 19.9164 43.9257 20.0323 43.2363C20.4418 40.8071 21.7529 39.4417 24.2835 38.8089C26.5521 38.2417 29.8499 38.2417 34.4145 38.2417C34.8521 38.2417 35.207 38.5891 35.207 39.0175C35.207 39.4459 34.8521 39.7933 34.4145 39.7933C24.9482 39.7933 22.1926 39.9508 21.5962 43.4889C21.556 43.7273 21.6256 43.9708 21.787 44.1569C21.9476 44.342 22.1821 44.4483 22.4299 44.4483H46.0376C48.0362 44.4483 48.415 43.2667 48.415 41.0864C48.415 39.7871 47.9016 38.0064 47.8963 37.9886C47.7766 37.5766 48.0206 37.1475 48.4413 37.0299C48.862 36.9125 49.3005 37.151 49.4206 37.5631C49.4442 37.6441 50 39.5678 50 41.0864C50 41.8493 50 43.002 49.5331 44.0108C49.1131 44.9182 48.1655 46 46.0376 46Z" fill="#444444"/>
<path fill-rule="evenodd" clip-rule="evenodd" d="M2.73953 38.4776C2.85122 40.2055 3.33287 41.561 4.17539 42.514C5.27467 43.7575 7.06624 44.3881 9.5 44.3881C11.7174 44.3881 13.2525 43.6176 14.1925 42.0323C15.0252 40.6279 15.2 38.8858 15.2 37.6716V20.4776C15.2 18.5222 15.939 17.7693 16.5326 17.1641C17.0197 16.6678 17.3714 16.3091 17.3714 15.1045C17.3714 12.8386 15.6803 12.0361 14.9531 11.7962C14.5801 11.6786 14.1821 11.6119 13.8429 11.6119C13.0476 11.6119 12.44 11.8778 11.9855 12.4246C11.2468 13.2956 10.9441 14.6934 10.677 15.9268C10.5496 16.5161 10.4291 17.0729 10.2675 17.5235C10.163 17.8139 10.0292 18.2989 9.86928 18.9656C9.80739 19.2388 9.7451 19.5396 9.68091 19.8751C9.31882 21.6684 8.14286 28.2277 8.14286 37.6716C8.14286 38.1168 7.77833 38.4776 7.32857 38.4776H2.73953ZM9.5 46C4.27364 46 1.38646 43.4034 1.10811 38.4776H0.814286C0.364664 38.4776 0 38.1168 0 37.6716C0 32.3363 1.56696 22.7718 5.77193 19.8202C6.13876 19.5627 6.64701 19.6484 6.90718 20.0114C7.16734 20.3744 7.08076 20.8775 6.71392 21.135C5.20681 22.193 3.85727 24.6766 2.91392 28.1286C2.17944 30.8159 1.71502 34.0223 1.63956 36.8657H6.51714C6.57753 27.9707 7.62456 21.8347 8.08233 19.5673C8.14829 19.2219 8.21438 18.904 8.28251 18.6032C8.46056 17.86 8.60714 17.3333 8.73294 16.9835C8.85889 16.6325 8.96854 16.1256 9.08471 15.5891C9.37623 14.2422 9.73899 12.5661 10.733 11.3943C11.5003 10.4712 12.5483 10 13.8429 10C14.3529 10 14.9115 10.0912 15.4581 10.2637C17.6798 10.9966 19 12.805 19 15.1045C19 16.963 18.2798 17.6973 17.7008 18.2871C17.1945 18.8033 16.8286 19.1762 16.8286 20.4776V37.6716C16.8286 39.0857 16.615 41.1317 15.597 42.8483C14.3742 44.9102 12.2659 46 9.5 46Z" fill="#444444"/>
</svg>
