<svg width="36" height="50" viewBox="0 0 36 50" fill="none" xmlns="http://www.w3.org/2000/svg">
<path fill-rule="evenodd" clip-rule="evenodd" d="M18 1.02985C15.3063 1.02985 13.1149 3.4837 13.1149 6.5C13.1149 9.5163 15.3063 11.9701 18 11.9701C20.6937 11.9701 22.8851 9.5163 22.8851 6.5C22.8851 3.4837 20.6937 1.02985 18 1.02985ZM18 13C14.6917 13 12 10.084 12 6.5C12 2.91581 14.6917 0 18 0C21.3085 0 24 2.91581 24 6.5C24 10.084 21.3085 13 18 13Z" fill="#0E0D0D"/>
<path fill-rule="evenodd" clip-rule="evenodd" d="M10.6803 28H9.71964V23.6284L8.64065 25.4461L3 20.8471L3.2517 20.4183C3.34654 20.2566 5.58619 16.4441 6.46975 15.2159C9.02177 11.672 10.7336 11 13 11V12.0761C10.9869 12.0761 9.53986 12.6663 7.21758 15.8912C6.53288 16.8431 4.92894 19.5313 4.30696 20.5816L8.39553 23.9155L10.6803 20.0663V28Z" fill="#0E0D0D"/>
<path fill-rule="evenodd" clip-rule="evenodd" d="M27 43H10V35H10.9974V41.9774H26.0026V35.7257H27V43Z" fill="#0E0D0D"/>
<path fill-rule="evenodd" clip-rule="evenodd" d="M26.8884 50L26 43.1168L27.1116 43L28 49.8832L26.8884 50Z" fill="#0E0D0D"/>
<path fill-rule="evenodd" clip-rule="evenodd" d="M27.234 29H26.2667V20.7835L28.5687 24.5112L32.6843 21.2815C32.0584 20.264 30.4441 17.6599 29.7548 16.7379C27.4028 13.5955 26.025 13.0424 24 13.0424V12C26.289 12 27.924 12.6316 30.508 16.0837C31.3977 17.2736 33.6515 20.9669 33.7468 21.1235L34 21.5387L28.322 25.9935L27.234 24.2315V29Z" fill="#0E0D0D"/>
<mask id="mask0" style="mask-type:alpha" maskUnits="userSpaceOnUse" x="0" y="0" width="36" height="50">
<path fill-rule="evenodd" clip-rule="evenodd" d="M0 50H36V0H0V50Z" fill="white"/>
</mask>
<g mask="url(#mask0)">
<path fill-rule="evenodd" clip-rule="evenodd" d="M26 43H27V38H26V43Z" fill="#0E0D0D"/>
<path fill-rule="evenodd" clip-rule="evenodd" d="M18.1654 39C17.6331 39 17.3089 38.6644 17.187 38.3555C17.011 38.0564 16.2635 36.7627 16.0581 36.0188C15.8023 35.0927 16.4445 34.5204 16.9386 34.3617L20.386 33.2739L20.6717 34.3092L17.2267 35.3964C16.9647 35.49 17.0094 35.6521 17.0263 35.7132C17.1792 36.2662 17.8295 37.4246 18.0673 37.8242L18.1057 37.889L18.1132 37.9158C18.1373 37.9227 18.202 37.928 18.3157 37.8965C18.9324 37.7246 19.3082 37.635 19.3763 37.6191L22.9431 36.6259C23.0334 36.6006 23.1283 36.5514 23.1655 36.5228C23.198 36.4645 23.2548 36.3197 23.29 36.2304C23.3617 36.0481 23.4293 35.8762 23.5182 35.74L23.6069 35.6038L23.7521 35.5444C24.0678 35.4153 24.45 35.2548 24.5172 35.2204L24.5173 35.2209C24.7281 35.1087 26.0895 34.4195 34.034 30.5065C34.986 30.0346 35.6437 29.2837 35.8851 28.3928C36.1456 27.4316 35.9171 26.3164 35.2246 25.1678C33.4023 22.2265 33.1901 21.8997 33.1662 21.8642L33.5738 21.5494L33.5705 21.5414L33.3779 21.0425C33.4914 20.9922 33.7819 20.9157 34.0227 21.2906C34.0576 21.3449 34.126 21.4526 34.2593 21.6651C34.5223 22.0847 35.0424 22.9189 36.0697 24.5772C36.9287 26.0016 37.199 27.4229 36.8549 28.6931C36.5309 29.8885 35.6796 30.8807 34.4576 31.4866C26.0157 35.6445 25.0779 36.1279 24.9781 36.1808L24.9577 36.1919C24.8576 36.2437 24.5185 36.3856 24.2883 36.4807C24.2649 36.5363 24.2403 36.599 24.2205 36.649C24.1461 36.8385 24.0689 37.0347 23.9674 37.1805C23.7473 37.4971 23.3229 37.6356 23.1981 37.6704L19.6009 38.6717C19.597 38.6724 19.2171 38.761 18.5702 38.9411C18.424 38.982 18.289 39 18.1654 39Z" fill="#0E0D0D"/>
<path fill-rule="evenodd" clip-rule="evenodd" d="M18.1163 34L18.0043 33.1936C17.9608 32.702 18.2549 32.2547 18.6741 32.1753L20.8046 31.8365C21.0071 31.7977 21.3235 31.8696 21.5505 31.9372L21.6137 31.9561L22.944 32.8112C22.9832 32.8264 23.0584 32.8367 23.1094 32.8337L23.6939 32.5158L30.4662 28.366C30.7269 28.197 30.9214 27.9529 30.9769 27.7198C31.02 27.5379 30.9868 27.3412 30.8755 27.1186C29.641 24.9904 29.4839 24.7402 29.4701 24.7187L29.8113 24.4358L30.2496 24C30.2741 24.0315 30.3312 24.1054 31.7235 26.5058L31.7381 26.533C31.9892 27.0231 32.0614 27.536 31.9475 28.0163C31.7761 28.7394 31.2516 29.1706 30.9542 29.3633L24.1392 33.5386L23.4378 33.9201L23.3912 33.934C23.1238 34.0135 22.7607 33.9747 22.5074 33.8398L22.4734 33.8197L21.2352 33.0238C21.117 32.9925 20.9886 32.9675 20.9383 32.967L19.0319 33.27L19.109 33.8211L18.1163 34Z" fill="#0E0D0D"/>
<path fill-rule="evenodd" clip-rule="evenodd" d="M13.7439 37C13.6147 36.9668 13.1761 36.8342 12.9485 36.5223C12.8463 36.3844 12.7703 36.2024 12.6898 36.0097C12.6669 35.9548 12.6373 35.884 12.6108 35.8253C12.1523 35.6026 10.2336 34.6804 2.47537 31.0101C1.54227 30.574 0.426383 29.9248 0.0957495 28.7747C-0.173557 27.8379 0.123895 26.7126 1.00499 25.3345C3.14908 22.0723 3.16596 22.0569 3.22907 22L3.57496 22.3893L3.99225 22.6994C3.9767 22.7212 3.78561 22.9963 1.87291 25.9063C1.16764 27.0097 0.910928 27.8546 1.09165 28.4837C1.25875 29.0649 1.82062 29.5519 2.91369 30.0626C12.6114 34.6507 13.2032 34.953 13.2236 34.9637L13.3384 35.0233L13.4121 35.1304C13.5029 35.2621 13.572 35.4282 13.6455 35.604C13.6821 35.6913 13.7414 35.8333 13.7747 35.889C13.8119 35.9164 13.9083 35.9634 14 35.987L13.7439 37Z" fill="#0E0D0D"/>
<path fill-rule="evenodd" clip-rule="evenodd" d="M18.0016 38H17.9986V37L18.0016 38Z" fill="#0E0D0D"/>
<path fill-rule="evenodd" clip-rule="evenodd" d="M18.0016 34H17.9986V33L18.0016 34Z" fill="#0E0D0D"/>
<path fill-rule="evenodd" clip-rule="evenodd" d="M13.8519 32C13.7445 32 13.6398 31.9881 13.5468 31.9637L13.4999 31.9514L13.4563 31.9303C13.4382 31.9215 11.586 31.0247 5.85384 28.1166L5.82828 28.1026C5.75146 28.0579 5.68085 28.0223 5.61804 27.9904C5.40013 27.8799 5.12881 27.7425 5.03177 27.4131C4.93415 27.0818 5.06888 26.7472 5.33472 26.2812L5.34959 26.2568C6.74768 24.0938 6.80328 24.0281 6.8271 24L7.59315 24.6712L7.21006 24.3357L7.6151 24.6433C7.60138 24.6626 7.44543 24.8863 6.20185 26.8101C6.13716 26.924 6.09427 27.0076 6.06582 27.068C6.06669 27.0686 6.0677 27.069 6.06871 27.0696C6.14322 27.1073 6.22669 27.1499 6.31722 27.2021C11.4614 29.8118 13.4665 30.7946 13.8281 30.971C13.8781 30.9737 13.9559 30.9647 13.9959 30.9507L15.3326 30.1797L15.3964 30.1626C15.6252 30.1016 15.9436 30.0371 16.161 30.0749L17 30.2057L16.8466 31.2226L16.0084 31.0918C15.9537 31.0927 15.822 31.117 15.7132 31.1427L14.4336 31.879C14.2679 31.9578 14.0548 32 13.8519 32Z" fill="#0E0D0D"/>
<path fill-rule="evenodd" clip-rule="evenodd" d="M9.95023 50L9 49.8417L10.0498 43L11 43.1583L9.95023 50Z" fill="#0E0D0D"/>
</g>
</svg>
