<svg width="41" height="56" viewBox="0 0 41 56" fill="none" xmlns="http://www.w3.org/2000/svg">
<mask id="mask0" style="mask-type:alpha" maskUnits="userSpaceOnUse" x="14" y="0" width="13" height="13">
<path fill-rule="evenodd" clip-rule="evenodd" d="M14.0935 0.0148926H26.9667V12.8879H14.0935V0.0148926Z" fill="white"/>
</mask>
<g mask="url(#mask0)">
<path fill-rule="evenodd" clip-rule="evenodd" d="M20.5301 0.683825C17.3498 0.683825 14.7624 3.27108 14.7624 6.45141C14.7624 9.63186 17.3498 12.219 20.5301 12.219C23.7104 12.219 26.2977 9.63186 26.2977 6.45141C26.2977 3.27108 23.7104 0.683825 20.5301 0.683825ZM20.5301 12.8879C16.981 12.8879 14.0935 10.0005 14.0935 6.45141C14.0935 2.90228 16.981 0.0148926 20.5301 0.0148926C24.0793 0.0148926 26.9667 2.90228 26.9667 6.45141C26.9667 10.0005 24.0793 12.8879 20.5301 12.8879Z" fill="black"/>
</g>
<path fill-rule="evenodd" clip-rule="evenodd" d="M15.3247 56L13.7126 40.8501C7.80584 38.0606 4 32.0464 4 25.4721C4 23.231 4.42664 21.0535 5.26814 19L5.896 19.2611C5.08872 21.2314 4.67925 23.3209 4.67925 25.4721C4.67925 31.844 8.40486 37.6681 14.1705 40.3097L14.347 40.3905L16 55.9272L15.3247 56Z" fill="black"/>
<path fill-rule="evenodd" clip-rule="evenodd" d="M25.6838 56L25 55.9272L26.6351 40.7493L26.8308 40.674C33.1 38.2637 37.3122 32.1543 37.3122 25.4721C37.3122 23.3216 36.8977 21.2318 36.0803 19.2606L36.7159 19C37.568 21.0541 38 23.2317 38 25.4721C38 32.365 33.6988 38.6728 27.2744 41.2356L25.6838 56Z" fill="black"/>
<path fill-rule="evenodd" clip-rule="evenodd" d="M20.6167 55H20V41.0461L22.7948 40L23 40.6167L20.6167 41.5082V55Z" fill="black"/>
<path fill-rule="evenodd" clip-rule="evenodd" d="M21.4963 37C18.1766 37 15.5969 35.7298 14 34.6457L14.3495 34C15.9182 35.0651 18.4771 36.3103 21.7857 36.2418C24.8366 36.171 27.2027 34.9837 28.6503 34.0001L29 34.6454C27.4818 35.677 25.0001 36.9227 21.7995 36.9967C21.6979 36.9989 21.5965 37 21.4963 37Z" fill="black"/>
<path fill-rule="evenodd" clip-rule="evenodd" d="M38.1679 37L37.5744 36.6661C38.9299 34.2901 41.0556 29.4001 40.0619 23.3437C39.6444 20.8002 38.0598 14.4763 32.374 10.6953C31.042 9.80963 29.5705 9.12071 28 8.64792L28.1978 8C29.833 8.4922 31.3657 9.20962 32.7536 10.1327C38.6615 14.0614 40.3034 20.6041 40.735 23.2346C41.7624 29.4956 39.5676 34.5463 38.1679 37Z" fill="black"/>
<path fill-rule="evenodd" clip-rule="evenodd" d="M35.8944 43C35.1382 43 34.5228 42.4496 34.5228 41.7726V41.311C33.8887 41.0123 33.3534 40.5499 33 39.9908L33.6421 39.6657C33.9583 40.1655 34.4554 40.5693 35.0418 40.8023L35.2608 40.8898V41.7726C35.2608 42.0852 35.545 42.3396 35.8944 42.3396C36.2438 42.3396 36.5278 42.0852 36.5278 41.7726V41.0365L36.8275 40.985C38.2382 40.743 39.2618 39.6338 39.2618 38.3475C39.2618 36.8658 37.9148 35.6604 36.2588 35.6604V35C38.3218 35 40 36.5017 40 38.3475C40 39.8576 38.8674 41.172 37.2659 41.5709V41.7726C37.2659 42.4496 36.6507 43 35.8944 43Z" fill="black"/>
<mask id="mask1" style="mask-type:alpha" maskUnits="userSpaceOnUse" x="0" y="8" width="13" height="29">
<path fill-rule="evenodd" clip-rule="evenodd" d="M0 8.10046H12.9994V36.9752H0V8.10046Z" fill="white"/>
</mask>
<g mask="url(#mask1)">
<path fill-rule="evenodd" clip-rule="evenodd" d="M2.83204 36.9752C1.43228 34.5321 -0.762272 29.5032 0.264986 23.2692C0.696689 20.6501 2.33842 14.1356 8.24596 10.224C9.63387 9.30485 11.1666 8.59054 12.8016 8.10046L12.9995 8.74559C11.429 9.21633 9.95758 9.90228 8.62566 10.7841C2.94015 14.5488 1.35557 20.8453 0.938283 23.3779C-0.0553808 29.4081 2.07006 34.277 3.42553 36.6427L2.83204 36.9752Z" fill="black"/>
</g>
<path fill-rule="evenodd" clip-rule="evenodd" d="M5.10559 43C4.34933 43 3.734 42.4496 3.734 41.7726V41.5709C2.13264 41.172 1 39.8576 1 38.3475C1 36.5017 2.67822 35 4.74104 35V35.6604C3.08524 35.6604 1.73801 36.8658 1.73801 38.3475C1.73801 39.6338 2.76177 40.743 4.17249 40.985L4.47215 41.0365V41.7726C4.47215 42.0852 4.75622 42.3396 5.10559 42.3396C5.45496 42.3396 5.73917 42.0852 5.73917 41.7726V40.8898L5.95821 40.8023C6.54444 40.5693 7.0417 40.1655 7.35779 39.6657L8 39.9908C7.64659 40.5499 7.11132 41.0123 6.47718 41.311V41.7726C6.47718 42.4496 5.86185 43 5.10559 43Z" fill="black"/>
</svg>
