<svg width="47" height="56" viewBox="0 0 47 56" fill="none" xmlns="http://www.w3.org/2000/svg">
<g opacity="0.629514">
<mask id="mask0" style="mask-type:alpha" maskUnits="userSpaceOnUse" x="5" y="0" width="33" height="54">
<path fill-rule="evenodd" clip-rule="evenodd" d="M5.03198 0.00341797H37.9907V53.985H5.03198V0.00341797Z" fill="white"/>
</mask>
<g mask="url(#mask0)">
<path fill-rule="evenodd" clip-rule="evenodd" d="M37.9907 29.5521C37.9907 27.4211 37.0551 25.5415 35.6388 24.4354C37.0551 23.3293 37.9907 21.4468 37.9907 19.3147C37.9907 15.9186 35.6185 13.1565 32.7014 13.1565H22.5563C24.4597 11.5067 26.0777 8.6737 26.0777 3.95522V1.04363C26.0777 0.468904 25.614 0.00341797 25.0409 0.00341797C24.4678 0.00341797 24.0041 0.468904 24.0041 1.04363V3.95522C24.0041 11.5038 19.2798 13.1565 17.4593 13.1565H6.06878C5.49571 13.1565 5.03198 13.6219 5.03198 14.1967C5.03198 14.7719 5.49571 15.2369 6.06878 15.2369H32.7014C34.4742 15.2369 35.9171 17.0665 35.9171 19.3147C35.9171 21.5658 34.4742 23.3961 32.7014 23.3961H6.06878C5.49571 23.3961 5.03198 23.8616 5.03198 24.4363C5.03198 25.0115 5.49571 25.4765 6.06878 25.4765H32.7014C34.4742 25.4765 35.9171 27.305 35.9171 29.5521C35.9171 31.8043 34.4742 33.6357 32.7014 33.6357H6.06878C5.49571 33.6357 5.03198 34.1012 5.03198 34.6759C5.03198 35.2511 5.49571 35.7162 6.06878 35.7162H32.7014C34.4742 35.7162 35.9171 37.5458 35.9171 39.794C35.9171 42.0428 34.4742 43.8736 32.7014 43.8736H22.9693C20.0545 43.8736 17.6821 46.6366 17.6821 50.0336V52.9448C17.6821 53.5199 18.1458 53.985 18.7189 53.985C19.292 53.985 19.7557 53.5199 19.7557 52.9448V50.0336C19.7557 47.7843 21.1975 45.954 22.9693 45.954H32.7014C35.6185 45.954 37.9907 43.1909 37.9907 39.794C37.9907 37.6625 37.0551 35.7812 35.6377 34.675C37.0551 33.5689 37.9907 31.6853 37.9907 29.5521Z" fill="#151515"/>
</g>
<mask id="mask1" style="mask-type:alpha" maskUnits="userSpaceOnUse" x="0" y="0" width="33" height="54">
<path fill-rule="evenodd" clip-rule="evenodd" d="M0 0.00341797H32.9963V53.985H0V0.00341797Z" fill="white"/>
</mask>
<g mask="url(#mask1)">
<path fill-rule="evenodd" clip-rule="evenodd" d="M31.9583 40.8342C32.532 40.8342 32.9963 40.3687 32.9963 39.794C32.9963 39.2188 32.532 38.7538 31.9583 38.7538H5.29325C3.51937 38.7538 2.07595 36.9241 2.07595 34.6759C2.07595 32.424 3.51937 30.5923 5.29325 30.5923H31.9583C32.532 30.5923 32.9963 30.1273 32.9963 29.5521C32.9963 28.9773 32.532 28.5118 31.9583 28.5118H5.29325C3.51937 28.5118 2.07595 26.6833 2.07595 24.4363C2.07595 22.1893 3.51328 20.3619 5.28222 20.3538C5.28628 20.3538 5.28922 20.3549 5.29325 20.3549H31.9583C32.532 20.3549 32.9963 19.8894 32.9963 19.3147V19.3136V19.3125C32.9963 18.7377 32.532 18.2722 31.9583 18.2722H5.29325C5.28922 18.2722 5.28628 18.2734 5.28222 18.2734C3.51328 18.2652 2.07595 16.4397 2.07595 14.1967C2.07595 11.9479 3.51937 10.1171 5.29325 10.1171H15.0364C15.0416 10.1171 15.0457 10.1142 15.0506 10.1142C17.9619 10.1049 20.3297 7.34704 20.3297 3.95526V1.04363C20.3297 0.468904 19.8655 0.00341797 19.2918 0.00341797C18.718 0.00341797 18.2538 0.468904 18.2538 1.04363V3.95526C18.2538 6.2041 16.8103 8.03486 15.0364 8.03486C15.0324 8.03486 15.0304 8.03667 15.0263 8.03667H5.29325C2.3751 8.03667 0 10.7997 0 14.1967C0 16.3282 0.935702 18.2084 2.35369 19.3136C0.935702 20.4208 0 22.3031 0 24.4363C0 26.5678 0.936605 28.448 2.35482 29.5532C0.936605 30.6596 0 32.5427 0 34.6759C0 38.072 2.3751 40.8342 5.29325 40.8342H15.4521C13.5464 42.4839 11.9266 45.3161 11.9266 50.0336V52.9448C11.9266 53.5199 12.3908 53.985 12.9646 53.985C13.5383 53.985 14.0025 53.5199 14.0025 52.9448V50.0336C14.0025 42.4868 18.7322 40.8342 20.5547 40.8342H31.9583Z" fill="#161616"/>
</g>
<path fill-rule="evenodd" clip-rule="evenodd" d="M34.002 29C26.8329 29 21 35.0563 21 42.5C21 49.9435 26.8329 56 34.002 56C41.1689 56 47 49.9435 47 42.5C47 35.0563 41.1689 29 34.002 29Z" fill="#D8D8D8"/>
<path fill-rule="evenodd" clip-rule="evenodd" d="M34.5021 51.8911C29.3227 51.8911 25.1093 47.6784 25.1093 42.5C25.1093 37.3214 29.3227 33.1089 34.5021 33.1089C39.6796 33.1089 43.8907 37.3214 43.8907 42.5C43.8907 47.6784 39.6796 51.8911 34.5021 51.8911ZM34.5021 31C28.1598 31 23 36.1588 23 42.5C23 48.8408 28.1598 54 34.5021 54C40.8422 54 46 48.8408 46 42.5C46 36.1588 40.8422 31 34.5021 31Z" fill="#1C1C1C"/>
<path fill-rule="evenodd" clip-rule="evenodd" d="M41.2525 42.4711C40.869 41.9798 40.1031 41.8511 39.5387 42.188C38.976 42.5226 38.8307 43.192 39.2142 43.6833C39.6164 44.1994 39.5562 45.2837 39.4639 45.7245C39.3371 46.308 39.7786 46.8713 40.4473 46.9816C40.5248 46.9945 40.6008 47 40.6772 47C41.2585 47 41.7759 46.6408 41.8879 46.1235C41.937 45.8961 42.3364 43.8613 41.2525 42.4711Z" fill="#2D2D2D"/>
<path fill-rule="evenodd" clip-rule="evenodd" d="M35.0232 46C35.0533 46 35.0844 45.9988 35.1155 45.9955C35.6513 45.9372 36.0453 45.3885 35.9958 44.7694C35.9763 44.5296 35.7702 42.3836 34.6 41.2597C34.1846 40.8626 33.57 40.9287 33.2259 41.4043C32.8814 41.8824 32.9369 42.5913 33.3512 42.9894C33.787 43.4079 34.0118 44.5137 34.0524 44.9803C34.1001 45.5625 34.5253 46 35.0232 46Z" fill="#2D2D2D"/>
<path fill-rule="evenodd" clip-rule="evenodd" d="M39.0579 37.0134C38.4443 36.9253 37.8689 37.2822 37.7681 37.8059C37.6629 38.3562 36.8433 39.0252 36.4661 39.2609C35.9633 39.5719 35.8491 40.1721 36.2128 40.6018C36.4323 40.8621 36.7751 41 37.1244 41C37.3516 41 37.5813 40.9417 37.7803 40.8181C37.9764 40.6975 39.7005 39.5967 39.9849 38.116C40.0857 37.5932 39.6702 37.0993 39.0579 37.0134Z" fill="#2D2D2D"/>
<path fill-rule="evenodd" clip-rule="evenodd" d="M34.7299 37.5202C35.3159 37.6413 35.8762 37.1996 35.9825 36.5328C36.0886 35.8656 35.7011 35.2268 35.1163 35.1044C34.8878 35.0565 32.8505 34.6725 31.465 35.7614C30.9756 36.1471 30.8533 36.9108 31.1902 37.47C31.3994 37.8153 31.7355 38 32.0777 38C32.2881 38 32.5018 37.9301 32.6886 37.7832C33.2016 37.3769 34.2877 37.4286 34.7299 37.5202Z" fill="#2D2D2D"/>
<path fill-rule="evenodd" clip-rule="evenodd" d="M31.4147 46.2192C30.8365 45.9501 30.3732 45.0721 30.2402 44.6914C30.0682 44.1861 29.44 43.8931 28.83 44.0363C28.2236 44.1795 27.8718 44.7055 28.0435 45.2108C28.1108 45.4068 28.7435 47.1546 30.3013 47.8797C30.4779 47.9611 30.6691 48 30.8568 48C31.2573 48 31.6455 47.8246 31.8549 47.5129C32.1622 47.0541 31.9655 46.4749 31.4147 46.2192Z" fill="#2D2D2D"/>
<path fill-rule="evenodd" clip-rule="evenodd" d="M37.0897 47.261C36.7476 47.5334 35.8368 48.0873 35.1808 48.0873H35.1582C34.5171 48.0654 34.0149 48.4924 34.0003 49.0213C33.9856 49.5484 34.4809 49.9869 35.1065 49.9992C35.1301 49.9992 35.155 50 35.1788 50C36.9204 50 38.4758 48.7868 38.6509 48.6466C39.1012 48.2827 39.118 47.6804 38.6891 47.2981C38.2614 46.9158 37.5447 46.8989 37.0897 47.261Z" fill="#2D2D2D"/>
<path fill-rule="evenodd" clip-rule="evenodd" d="M29.1826 41.81C29.3877 41.9381 29.626 42 29.8629 42C30.2075 42 30.5476 41.8689 30.7709 41.62C31.1485 41.201 31.0487 40.6044 30.5499 40.2863C30.1702 40.045 29.356 39.3678 29.2633 38.8207C29.1746 38.3001 28.6022 37.9332 27.9786 38.0102C27.3561 38.0835 26.9232 38.5661 27.0114 39.0866C27.2608 40.5647 28.9876 41.6865 29.1826 41.81Z" fill="#2D2D2D"/>
</g>
</svg>
