<svg width="298" height="84" viewBox="0 0 298 84" fill="none" xmlns="http://www.w3.org/2000/svg">
<path d="M27 13H288C292.418 13 296 16.5817 296 21V62C296 66.4183 292.418 70 288 70H27V13Z" stroke="#009F40" stroke-width="3"/>
<rect x="1" width="192" height="24" fill="white"/>
<rect x="1" y="2" width="49" height="82" fill="white"/>
<path d="M52.74 6.67C52.9133 6.67 53.04 6.69333 53.12 6.74C53.2067 6.78 53.3033 6.86667 53.41 7L61.71 17.8C61.69 17.6267 61.6767 17.46 61.67 17.3C61.6633 17.1333 61.66 16.9733 61.66 16.82V6.67H63.36V21H62.38C62.2267 21 62.0967 20.9733 61.99 20.92C61.89 20.8667 61.79 20.7767 61.69 20.65L53.4 9.86C53.4133 10.0267 53.4233 10.19 53.43 10.35C53.4367 10.51 53.44 10.6567 53.44 10.79V21H51.74V6.67H52.74ZM68.1172 10.87V17.33C68.1172 18.0967 68.2939 18.69 68.6472 19.11C69.0005 19.53 69.5339 19.74 70.2472 19.74C70.7672 19.74 71.2572 19.6167 71.7172 19.37C72.1772 19.1233 72.6005 18.78 72.9872 18.34V10.87H74.7672V21H73.7072C73.4539 21 73.2939 20.8767 73.2272 20.63L73.0872 19.54C72.6472 20.0267 72.1539 20.42 71.6072 20.72C71.0605 21.0133 70.4339 21.16 69.7272 21.16C69.1739 21.16 68.6839 21.07 68.2572 20.89C67.8372 20.7033 67.4839 20.4433 67.1972 20.11C66.9105 19.7767 66.6939 19.3733 66.5472 18.9C66.4072 18.4267 66.3372 17.9033 66.3372 17.33V10.87H68.1172ZM77.6905 21V10.87H78.7505C79.0038 10.87 79.1638 10.9933 79.2305 11.24L79.3605 12.28C79.7338 11.82 80.1505 11.4433 80.6105 11.15C81.0771 10.8567 81.6171 10.71 82.2305 10.71C82.9171 10.71 83.4705 10.9 83.8905 11.28C84.3171 11.66 84.6238 12.1733 84.8105 12.82C84.9505 12.4533 85.1338 12.1367 85.3605 11.87C85.5938 11.6033 85.8538 11.3833 86.1405 11.21C86.4271 11.0367 86.7305 10.91 87.0505 10.83C87.3771 10.75 87.7071 10.71 88.0405 10.71C88.5738 10.71 89.0471 10.7967 89.4605 10.97C89.8805 11.1367 90.2338 11.3833 90.5205 11.71C90.8138 12.0367 91.0371 12.44 91.1905 12.92C91.3438 13.3933 91.4205 13.9367 91.4205 14.55V21H89.6405V14.55C89.6405 13.7567 89.4671 13.1567 89.1205 12.75C88.7738 12.3367 88.2705 12.13 87.6105 12.13C87.3171 12.13 87.0371 12.1833 86.7705 12.29C86.5105 12.39 86.2805 12.54 86.0805 12.74C85.8805 12.94 85.7205 13.1933 85.6005 13.5C85.4871 13.8 85.4305 14.15 85.4305 14.55V21H83.6505V14.55C83.6505 13.7367 83.4871 13.13 83.1605 12.73C82.8338 12.33 82.3571 12.13 81.7305 12.13C81.2905 12.13 80.8805 12.25 80.5005 12.49C80.1271 12.7233 79.7838 13.0433 79.4705 13.45V21H77.6905ZM98.1263 10.71C98.7329 10.71 99.2929 10.8133 99.8063 11.02C100.32 11.22 100.763 11.5133 101.136 11.9C101.51 12.28 101.8 12.7533 102.006 13.32C102.22 13.88 102.326 14.52 102.326 15.24C102.326 15.52 102.296 15.7067 102.236 15.8C102.176 15.8933 102.063 15.94 101.896 15.94H95.1562C95.1696 16.58 95.2563 17.1367 95.4163 17.61C95.5763 18.0833 95.7963 18.48 96.0763 18.8C96.3563 19.1133 96.6896 19.35 97.0763 19.51C97.4629 19.6633 97.8963 19.74 98.3763 19.74C98.8229 19.74 99.2063 19.69 99.5263 19.59C99.8529 19.4833 100.133 19.37 100.366 19.25C100.6 19.13 100.793 19.02 100.946 18.92C101.106 18.8133 101.243 18.76 101.356 18.76C101.503 18.76 101.616 18.8167 101.696 18.93L102.196 19.58C101.976 19.8467 101.713 20.08 101.406 20.28C101.1 20.4733 100.77 20.6333 100.416 20.76C100.07 20.8867 99.7096 20.98 99.3363 21.04C98.9629 21.1067 98.5929 21.14 98.2263 21.14C97.5263 21.14 96.8796 21.0233 96.2863 20.79C95.6996 20.55 95.1896 20.2033 94.7563 19.75C94.3296 19.29 93.9963 18.7233 93.7563 18.05C93.5163 17.3767 93.3963 16.6033 93.3963 15.73C93.3963 15.0233 93.5029 14.3633 93.7163 13.75C93.9363 13.1367 94.2496 12.6067 94.6563 12.16C95.0629 11.7067 95.5596 11.3533 96.1463 11.1C96.7329 10.84 97.3929 10.71 98.1263 10.71ZM98.1662 12.02C97.3063 12.02 96.6296 12.27 96.1363 12.77C95.6429 13.2633 95.3363 13.95 95.2163 14.83H100.726C100.726 14.4167 100.67 14.04 100.556 13.7C100.443 13.3533 100.276 13.0567 100.056 12.81C99.8363 12.5567 99.5663 12.3633 99.2463 12.23C98.9329 12.09 98.5729 12.02 98.1662 12.02ZM104.605 21V10.87H105.625C105.818 10.87 105.951 10.9067 106.025 10.98C106.098 11.0533 106.148 11.18 106.175 11.36L106.295 12.94C106.641 12.2333 107.068 11.6833 107.575 11.29C108.088 10.89 108.688 10.69 109.375 10.69C109.655 10.69 109.908 10.7233 110.135 10.79C110.361 10.85 110.571 10.9367 110.765 11.05L110.535 12.38C110.488 12.5467 110.385 12.63 110.225 12.63C110.131 12.63 109.988 12.6 109.795 12.54C109.601 12.4733 109.331 12.44 108.985 12.44C108.365 12.44 107.845 12.62 107.425 12.98C107.011 13.34 106.665 13.8633 106.385 14.55V21H104.605ZM116.771 10.71C117.511 10.71 118.178 10.8333 118.771 11.08C119.371 11.3267 119.878 11.6767 120.291 12.13C120.711 12.5833 121.031 13.1333 121.251 13.78C121.478 14.42 121.591 15.1367 121.591 15.93C121.591 16.73 121.478 17.45 121.251 18.09C121.031 18.73 120.711 19.2767 120.291 19.73C119.878 20.1833 119.371 20.5333 118.771 20.78C118.178 21.02 117.511 21.14 116.771 21.14C116.031 21.14 115.361 21.02 114.761 20.78C114.168 20.5333 113.661 20.1833 113.241 19.73C112.821 19.2767 112.498 18.73 112.271 18.09C112.044 17.45 111.931 16.73 111.931 15.93C111.931 15.1367 112.044 14.42 112.271 13.78C112.498 13.1333 112.821 12.5833 113.241 12.13C113.661 11.6767 114.168 11.3267 114.761 11.08C115.361 10.8333 116.031 10.71 116.771 10.71ZM116.771 19.75C117.771 19.75 118.518 19.4167 119.011 18.75C119.504 18.0767 119.751 17.14 119.751 15.94C119.751 14.7333 119.504 13.7933 119.011 13.12C118.518 12.4467 117.771 12.11 116.771 12.11C116.264 12.11 115.824 12.1967 115.451 12.37C115.078 12.5433 114.764 12.7933 114.511 13.12C114.264 13.4467 114.078 13.85 113.951 14.33C113.831 14.8033 113.771 15.34 113.771 15.94C113.771 16.54 113.831 17.0767 113.951 17.55C114.078 18.0233 114.264 18.4233 114.511 18.75C114.764 19.07 115.078 19.3167 115.451 19.49C115.824 19.6633 116.264 19.75 116.771 19.75ZM126.271 6.67H127.821C127.995 6.67 128.135 6.71333 128.241 6.8C128.348 6.88667 128.428 6.99667 128.481 7.13L132.531 17.24C132.625 17.4667 132.708 17.7133 132.781 17.98C132.861 18.2467 132.938 18.5233 133.011 18.81C133.071 18.5233 133.135 18.2467 133.201 17.98C133.275 17.7133 133.358 17.4667 133.451 17.24L137.481 7.13C137.528 7.01667 137.608 6.91333 137.721 6.82C137.835 6.72 137.975 6.67 138.141 6.67H139.701L133.861 21H132.111L126.271 6.67ZM144.103 10.71C144.709 10.71 145.269 10.8133 145.783 11.02C146.296 11.22 146.739 11.5133 147.113 11.9C147.486 12.28 147.776 12.7533 147.983 13.32C148.196 13.88 148.303 14.52 148.303 15.24C148.303 15.52 148.273 15.7067 148.213 15.8C148.153 15.8933 148.039 15.94 147.873 15.94H141.133C141.146 16.58 141.233 17.1367 141.393 17.61C141.553 18.0833 141.773 18.48 142.053 18.8C142.333 19.1133 142.666 19.35 143.053 19.51C143.439 19.6633 143.873 19.74 144.353 19.74C144.799 19.74 145.183 19.69 145.503 19.59C145.829 19.4833 146.109 19.37 146.343 19.25C146.576 19.13 146.769 19.02 146.923 18.92C147.083 18.8133 147.219 18.76 147.333 18.76C147.479 18.76 147.593 18.8167 147.673 18.93L148.173 19.58C147.953 19.8467 147.689 20.08 147.383 20.28C147.076 20.4733 146.746 20.6333 146.393 20.76C146.046 20.8867 145.686 20.98 145.313 21.04C144.939 21.1067 144.569 21.14 144.203 21.14C143.503 21.14 142.856 21.0233 142.263 20.79C141.676 20.55 141.166 20.2033 140.733 19.75C140.306 19.29 139.973 18.7233 139.733 18.05C139.493 17.3767 139.373 16.6033 139.373 15.73C139.373 15.0233 139.479 14.3633 139.693 13.75C139.913 13.1367 140.226 12.6067 140.633 12.16C141.039 11.7067 141.536 11.3533 142.123 11.1C142.709 10.84 143.369 10.71 144.103 10.71ZM144.143 12.02C143.283 12.02 142.606 12.27 142.113 12.77C141.619 13.2633 141.313 13.95 141.193 14.83H146.703C146.703 14.4167 146.646 14.04 146.533 13.7C146.419 13.3533 146.253 13.0567 146.033 12.81C145.813 12.5567 145.543 12.3633 145.223 12.23C144.909 12.09 144.549 12.02 144.143 12.02ZM150.581 21V10.87H151.601C151.794 10.87 151.928 10.9067 152.001 10.98C152.074 11.0533 152.124 11.18 152.151 11.36L152.271 12.94C152.618 12.2333 153.044 11.6833 153.551 11.29C154.064 10.89 154.664 10.69 155.351 10.69C155.631 10.69 155.884 10.7233 156.111 10.79C156.338 10.85 156.548 10.9367 156.741 11.05L156.511 12.38C156.464 12.5467 156.361 12.63 156.201 12.63C156.108 12.63 155.964 12.6 155.771 12.54C155.578 12.4733 155.308 12.44 154.961 12.44C154.341 12.44 153.821 12.62 153.401 12.98C152.988 13.34 152.641 13.8633 152.361 14.55V21H150.581ZM165.778 21C165.524 21 165.364 20.8767 165.298 20.63L165.138 19.4C164.704 19.9267 164.208 20.35 163.648 20.67C163.094 20.9833 162.458 21.14 161.738 21.14C161.158 21.14 160.631 21.03 160.158 20.81C159.684 20.5833 159.281 20.2533 158.948 19.82C158.614 19.3867 158.358 18.8467 158.178 18.2C157.998 17.5533 157.908 16.81 157.908 15.97C157.908 15.2233 158.008 14.53 158.208 13.89C158.408 13.2433 158.694 12.6833 159.068 12.21C159.448 11.7367 159.908 11.3667 160.448 11.1C160.988 10.8267 161.601 10.69 162.288 10.69C162.908 10.69 163.438 10.7967 163.878 11.01C164.318 11.2167 164.711 11.51 165.058 11.89V6.27H166.838V21H165.778ZM162.327 19.7C162.908 19.7 163.414 19.5667 163.848 19.3C164.288 19.0333 164.691 18.6567 165.058 18.17V13.27C164.731 12.83 164.371 12.5233 163.978 12.35C163.591 12.17 163.161 12.08 162.688 12.08C161.741 12.08 161.014 12.4167 160.508 13.09C160.001 13.7633 159.748 14.7233 159.748 15.97C159.748 16.63 159.804 17.1967 159.918 17.67C160.031 18.1367 160.198 18.5233 160.418 18.83C160.638 19.13 160.908 19.35 161.228 19.49C161.548 19.63 161.914 19.7 162.327 19.7ZM173.829 10.71C174.436 10.71 174.996 10.8133 175.509 11.02C176.023 11.22 176.466 11.5133 176.839 11.9C177.213 12.28 177.503 12.7533 177.709 13.32C177.923 13.88 178.029 14.52 178.029 15.24C178.029 15.52 177.999 15.7067 177.939 15.8C177.879 15.8933 177.766 15.94 177.599 15.94H170.859C170.873 16.58 170.959 17.1367 171.119 17.61C171.279 18.0833 171.499 18.48 171.779 18.8C172.059 19.1133 172.393 19.35 172.779 19.51C173.166 19.6633 173.599 19.74 174.079 19.74C174.526 19.74 174.909 19.69 175.229 19.59C175.556 19.4833 175.836 19.37 176.069 19.25C176.303 19.13 176.496 19.02 176.649 18.92C176.809 18.8133 176.946 18.76 177.059 18.76C177.206 18.76 177.319 18.8167 177.399 18.93L177.899 19.58C177.679 19.8467 177.416 20.08 177.109 20.28C176.803 20.4733 176.473 20.6333 176.119 20.76C175.773 20.8867 175.413 20.98 175.039 21.04C174.666 21.1067 174.296 21.14 173.929 21.14C173.229 21.14 172.583 21.0233 171.989 20.79C171.403 20.55 170.893 20.2033 170.459 19.75C170.033 19.29 169.699 18.7233 169.459 18.05C169.219 17.3767 169.099 16.6033 169.099 15.73C169.099 15.0233 169.206 14.3633 169.419 13.75C169.639 13.1367 169.953 12.6067 170.359 12.16C170.766 11.7067 171.263 11.3533 171.849 11.1C172.436 10.84 173.096 10.71 173.829 10.71ZM173.869 12.02C173.009 12.02 172.333 12.27 171.839 12.77C171.346 13.2633 171.039 13.95 170.919 14.83H176.429C176.429 14.4167 176.373 14.04 176.259 13.7C176.146 13.3533 175.979 13.0567 175.759 12.81C175.539 12.5567 175.269 12.3633 174.949 12.23C174.636 12.09 174.276 12.02 173.869 12.02Z" fill="#009F40"/>
<path d="M61.6 60.32C60.0533 60.32 58.64 60.1133 57.36 59.7C56.08 59.2867 54.98 58.7067 54.06 57.96C53.1533 57.2 52.4467 56.2867 51.94 55.22C51.4467 54.1533 51.2 52.9667 51.2 51.66C51.2 50.8733 51.2867 50.1333 51.46 49.44C51.6467 48.7333 51.9333 48.0933 52.32 47.52C52.72 46.9333 53.2267 46.4133 53.84 45.96C54.4667 45.5067 55.22 45.1267 56.1 44.82C54.7667 44.22 53.7733 43.3867 53.12 42.32C52.48 41.2533 52.16 39.9733 52.16 38.48C52.16 37.3467 52.3933 36.3 52.86 35.34C53.3267 34.3667 53.98 33.5267 54.82 32.82C55.66 32.1133 56.6533 31.56 57.8 31.16C58.96 30.7467 60.2267 30.54 61.6 30.54C62.9733 30.54 64.2333 30.7467 65.38 31.16C66.54 31.56 67.54 32.1133 68.38 32.82C69.22 33.5267 69.8733 34.3667 70.34 35.34C70.8067 36.3 71.04 37.3467 71.04 38.48C71.04 39.9733 70.7133 41.2533 70.06 42.32C69.4067 43.3867 68.42 44.22 67.1 44.82C67.9667 45.1267 68.7067 45.5067 69.32 45.96C69.9467 46.4133 70.4533 46.9333 70.84 47.52C71.24 48.0933 71.5333 48.7333 71.72 49.44C71.9067 50.1333 72 50.8733 72 51.66C72 52.9667 71.7467 54.1533 71.24 55.22C70.7467 56.2867 70.04 57.2 69.12 57.96C68.2133 58.7067 67.12 59.2867 65.84 59.7C64.56 60.1133 63.1467 60.32 61.6 60.32ZM61.6 55.64C62.2933 55.64 62.8933 55.5333 63.4 55.32C63.9067 55.1067 64.32 54.82 64.64 54.46C64.9733 54.0867 65.2133 53.6533 65.36 53.16C65.52 52.6533 65.6 52.1133 65.6 51.54C65.6 50.9133 65.5333 50.34 65.4 49.82C65.2667 49.3 65.0467 48.86 64.74 48.5C64.4333 48.1267 64.02 47.84 63.5 47.64C62.9933 47.4267 62.36 47.32 61.6 47.32C60.84 47.32 60.2 47.4267 59.68 47.64C59.1733 47.84 58.7667 48.1267 58.46 48.5C58.1533 48.86 57.9333 49.3 57.8 49.82C57.6667 50.34 57.6 50.9133 57.6 51.54C57.6 52.1133 57.6733 52.6533 57.82 53.16C57.98 53.6533 58.22 54.0867 58.54 54.46C58.8733 54.82 59.2867 55.1067 59.78 55.32C60.2867 55.5333 60.8933 55.64 61.6 55.64ZM61.6 42.6C62.2933 42.6 62.86 42.4867 63.3 42.26C63.74 42.0333 64.0867 41.7333 64.34 41.36C64.5933 40.9867 64.7667 40.56 64.86 40.08C64.9533 39.6 65 39.1067 65 38.6C65 38.1467 64.94 37.7067 64.82 37.28C64.7 36.8533 64.5 36.48 64.22 36.16C63.9533 35.8267 63.6 35.56 63.16 35.36C62.7333 35.16 62.2133 35.06 61.6 35.06C60.9733 35.06 60.4467 35.16 60.02 35.36C59.5933 35.56 59.24 35.8267 58.96 36.16C58.6933 36.48 58.5 36.8533 58.38 37.28C58.26 37.7067 58.2 38.1467 58.2 38.6C58.2 39.1067 58.2467 39.6 58.34 40.08C58.4333 40.56 58.6067 40.9867 58.86 41.36C59.1133 41.7333 59.46 42.0333 59.9 42.26C60.34 42.4867 60.9067 42.6 61.6 42.6ZM95.6031 45.42C95.6031 47.9667 95.3298 50.1733 94.7831 52.04C94.2365 53.9067 93.4765 55.4533 92.5031 56.68C91.5431 57.9067 90.3965 58.82 89.0631 59.42C87.7431 60.02 86.3098 60.32 84.7631 60.32C83.2165 60.32 81.7831 60.02 80.4631 59.42C79.1565 58.82 78.0231 57.9067 77.0631 56.68C76.1031 55.4533 75.3498 53.9067 74.8031 52.04C74.2698 50.1733 74.0031 47.9667 74.0031 45.42C74.0031 42.8733 74.2698 40.6667 74.8031 38.8C75.3498 36.9333 76.1031 35.3867 77.0631 34.16C78.0231 32.9333 79.1565 32.0267 80.4631 31.44C81.7831 30.84 83.2165 30.54 84.7631 30.54C86.3098 30.54 87.7431 30.84 89.0631 31.44C90.3965 32.0267 91.5431 32.9333 92.5031 34.16C93.4765 35.3867 94.2365 36.9333 94.7831 38.8C95.3298 40.6667 95.6031 42.8733 95.6031 45.42ZM89.2031 45.42C89.2031 43.4067 89.0765 41.76 88.8231 40.48C88.5698 39.1867 88.2298 38.1733 87.8031 37.44C87.3898 36.7067 86.9165 36.2067 86.3831 35.94C85.8498 35.66 85.3098 35.52 84.7631 35.52C84.2165 35.52 83.6765 35.66 83.1431 35.94C82.6231 36.2067 82.1565 36.7067 81.7431 37.44C81.3431 38.1733 81.0165 39.1867 80.7631 40.48C80.5231 41.76 80.4031 43.4067 80.4031 45.42C80.4031 47.4467 80.5231 49.1 80.7631 50.38C81.0165 51.66 81.3431 52.6733 81.7431 53.42C82.1565 54.1533 82.6231 54.66 83.1431 54.94C83.6765 55.2067 84.2165 55.34 84.7631 55.34C85.3098 55.34 85.8498 55.2067 86.3831 54.94C86.9165 54.66 87.3898 54.1533 87.8031 53.42C88.2298 52.6733 88.5698 51.66 88.8231 50.38C89.0765 49.1 89.2031 47.4467 89.2031 45.42ZM118.806 45.42C118.806 47.9667 118.533 50.1733 117.986 52.04C117.44 53.9067 116.68 55.4533 115.706 56.68C114.746 57.9067 113.6 58.82 112.266 59.42C110.946 60.02 109.513 60.32 107.966 60.32C106.42 60.32 104.986 60.02 103.666 59.42C102.36 58.82 101.226 57.9067 100.266 56.68C99.3063 55.4533 98.5529 53.9067 98.0063 52.04C97.4729 50.1733 97.2063 47.9667 97.2063 45.42C97.2063 42.8733 97.4729 40.6667 98.0063 38.8C98.5529 36.9333 99.3063 35.3867 100.266 34.16C101.226 32.9333 102.36 32.0267 103.666 31.44C104.986 30.84 106.42 30.54 107.966 30.54C109.513 30.54 110.946 30.84 112.266 31.44C113.6 32.0267 114.746 32.9333 115.706 34.16C116.68 35.3867 117.44 36.9333 117.986 38.8C118.533 40.6667 118.806 42.8733 118.806 45.42ZM112.406 45.42C112.406 43.4067 112.28 41.76 112.026 40.48C111.773 39.1867 111.433 38.1733 111.006 37.44C110.593 36.7067 110.12 36.2067 109.586 35.94C109.053 35.66 108.513 35.52 107.966 35.52C107.42 35.52 106.88 35.66 106.346 35.94C105.826 36.2067 105.36 36.7067 104.946 37.44C104.546 38.1733 104.22 39.1867 103.966 40.48C103.726 41.76 103.606 43.4067 103.606 45.42C103.606 47.4467 103.726 49.1 103.966 50.38C104.22 51.66 104.546 52.6733 104.946 53.42C105.36 54.1533 105.826 54.66 106.346 54.94C106.88 55.2067 107.42 55.34 107.966 55.34C108.513 55.34 109.053 55.2067 109.586 54.94C110.12 54.66 110.593 54.1533 111.006 53.42C111.433 52.6733 111.773 51.66 112.026 50.38C112.28 49.1 112.406 47.4467 112.406 45.42ZM137.584 48.64C136.637 48.64 135.69 48.4733 134.744 48.14C133.797 47.7933 132.937 47.2733 132.164 46.58C131.404 45.8867 130.784 45.0133 130.304 43.96C129.824 42.9067 129.584 41.66 129.584 40.22C129.584 38.9 129.824 37.6533 130.304 36.48C130.797 35.3067 131.49 34.28 132.384 33.4C133.29 32.52 134.37 31.8267 135.624 31.32C136.877 30.8 138.277 30.54 139.824 30.54C141.397 30.54 142.804 30.78 144.044 31.26C145.284 31.74 146.33 32.4133 147.184 33.28C148.05 34.1467 148.71 35.18 149.164 36.38C149.63 37.5667 149.864 38.88 149.864 40.32C149.864 41.28 149.784 42.18 149.624 43.02C149.477 43.86 149.264 44.6667 148.984 45.44C148.717 46.2 148.39 46.9333 148.004 47.64C147.617 48.3333 147.184 49.02 146.704 49.7L140.424 58.62C140.157 59.0067 139.737 59.3333 139.164 59.6C138.59 59.8667 137.944 60 137.224 60H131.504L140.744 48.96C140.93 48.7333 141.104 48.52 141.264 48.32C141.437 48.1067 141.604 47.8933 141.764 47.68C141.164 48 140.51 48.24 139.804 48.4C139.097 48.56 138.357 48.64 137.584 48.64ZM143.944 39.76C143.944 39.0533 143.837 38.4333 143.624 37.9C143.424 37.3533 143.137 36.9 142.764 36.54C142.404 36.18 141.964 35.9067 141.444 35.72C140.924 35.5333 140.357 35.44 139.744 35.44C139.117 35.44 138.557 35.5533 138.064 35.78C137.584 35.9933 137.17 36.2933 136.824 36.68C136.49 37.0667 136.23 37.5267 136.044 38.06C135.87 38.58 135.784 39.1467 135.784 39.76C135.784 42.6667 137.13 44.12 139.824 44.12C141.144 44.12 142.157 43.7267 142.864 42.94C143.584 42.14 143.944 41.08 143.944 39.76ZM160.787 48.64C159.84 48.64 158.894 48.4733 157.947 48.14C157 47.7933 156.14 47.2733 155.367 46.58C154.607 45.8867 153.987 45.0133 153.507 43.96C153.027 42.9067 152.787 41.66 152.787 40.22C152.787 38.9 153.027 37.6533 153.507 36.48C154 35.3067 154.694 34.28 155.587 33.4C156.494 32.52 157.574 31.8267 158.827 31.32C160.08 30.8 161.48 30.54 163.027 30.54C164.6 30.54 166.007 30.78 167.247 31.26C168.487 31.74 169.534 32.4133 170.387 33.28C171.254 34.1467 171.914 35.18 172.367 36.38C172.834 37.5667 173.067 38.88 173.067 40.32C173.067 41.28 172.987 42.18 172.827 43.02C172.68 43.86 172.467 44.6667 172.187 45.44C171.92 46.2 171.594 46.9333 171.207 47.64C170.82 48.3333 170.387 49.02 169.907 49.7L163.627 58.62C163.36 59.0067 162.94 59.3333 162.367 59.6C161.794 59.8667 161.147 60 160.427 60H154.707L163.947 48.96C164.134 48.7333 164.307 48.52 164.467 48.32C164.64 48.1067 164.807 47.8933 164.967 47.68C164.367 48 163.714 48.24 163.007 48.4C162.3 48.56 161.56 48.64 160.787 48.64ZM167.147 39.76C167.147 39.0533 167.04 38.4333 166.827 37.9C166.627 37.3533 166.34 36.9 165.967 36.54C165.607 36.18 165.167 35.9067 164.647 35.72C164.127 35.5333 163.56 35.44 162.947 35.44C162.32 35.44 161.76 35.5533 161.267 35.78C160.787 35.9933 160.374 36.2933 160.027 36.68C159.694 37.0667 159.434 37.5267 159.247 38.06C159.074 38.58 158.987 39.1467 158.987 39.76C158.987 42.6667 160.334 44.12 163.027 44.12C164.347 44.12 165.36 43.7267 166.067 42.94C166.787 42.14 167.147 41.08 167.147 39.76ZM183.99 48.64C183.043 48.64 182.097 48.4733 181.15 48.14C180.203 47.7933 179.343 47.2733 178.57 46.58C177.81 45.8867 177.19 45.0133 176.71 43.96C176.23 42.9067 175.99 41.66 175.99 40.22C175.99 38.9 176.23 37.6533 176.71 36.48C177.203 35.3067 177.897 34.28 178.79 33.4C179.697 32.52 180.777 31.8267 182.03 31.32C183.283 30.8 184.683 30.54 186.23 30.54C187.803 30.54 189.21 30.78 190.45 31.26C191.69 31.74 192.737 32.4133 193.59 33.28C194.457 34.1467 195.117 35.18 195.57 36.38C196.037 37.5667 196.27 38.88 196.27 40.32C196.27 41.28 196.19 42.18 196.03 43.02C195.883 43.86 195.67 44.6667 195.39 45.44C195.123 46.2 194.797 46.9333 194.41 47.64C194.023 48.3333 193.59 49.02 193.11 49.7L186.83 58.62C186.563 59.0067 186.143 59.3333 185.57 59.6C184.997 59.8667 184.35 60 183.63 60H177.91L187.15 48.96C187.337 48.7333 187.51 48.52 187.67 48.32C187.843 48.1067 188.01 47.8933 188.17 47.68C187.57 48 186.917 48.24 186.21 48.4C185.503 48.56 184.763 48.64 183.99 48.64ZM190.35 39.76C190.35 39.0533 190.243 38.4333 190.03 37.9C189.83 37.3533 189.543 36.9 189.17 36.54C188.81 36.18 188.37 35.9067 187.85 35.72C187.33 35.5333 186.763 35.44 186.15 35.44C185.523 35.44 184.963 35.5533 184.47 35.78C183.99 35.9933 183.577 36.2933 183.23 36.68C182.897 37.0667 182.637 37.5267 182.45 38.06C182.277 38.58 182.19 39.1467 182.19 39.76C182.19 42.6667 183.537 44.12 186.23 44.12C187.55 44.12 188.563 43.7267 189.27 42.94C189.99 42.14 190.35 41.08 190.35 39.76ZM226.808 30.86V33.46C226.808 34.1933 226.728 34.7867 226.568 35.24C226.408 35.6933 226.254 36.08 226.108 36.4L215.928 57.96C215.661 58.5333 215.268 59.02 214.748 59.42C214.228 59.8067 213.541 60 212.688 60H208.168L218.568 39.14C218.848 38.5667 219.148 38.0533 219.468 37.6C219.801 37.1467 220.161 36.7133 220.548 36.3H207.728C207.541 36.3 207.361 36.2667 207.188 36.2C207.028 36.12 206.881 36.02 206.748 35.9C206.628 35.7667 206.528 35.62 206.448 35.46C206.368 35.2867 206.328 35.1133 206.328 34.94V30.86H226.808ZM241.651 41.54C242.704 41.54 243.744 41.7133 244.771 42.06C245.797 42.4067 246.717 42.94 247.531 43.66C248.344 44.38 248.997 45.2933 249.491 46.4C249.997 47.4933 250.251 48.7867 250.251 50.28C250.251 51.64 249.997 52.9333 249.491 54.16C248.984 55.3733 248.264 56.44 247.331 57.36C246.411 58.2667 245.297 58.9867 243.991 59.52C242.684 60.0533 241.237 60.32 239.651 60.32C238.024 60.32 236.564 60.0667 235.271 59.56C233.977 59.04 232.877 58.32 231.971 57.4C231.077 56.48 230.391 55.38 229.911 54.1C229.444 52.82 229.211 51.4133 229.211 49.88C229.211 48.4267 229.491 46.98 230.051 45.54C230.611 44.1 231.437 42.6333 232.531 41.14L239.091 32.28C239.384 31.88 239.824 31.5467 240.411 31.28C240.997 31 241.664 30.86 242.411 30.86H247.931L239.291 41.18C239.157 41.3267 239.024 41.48 238.891 41.64C238.771 41.7867 238.651 41.9333 238.531 42.08C238.997 41.9067 239.484 41.7733 239.991 41.68C240.511 41.5867 241.064 41.54 241.651 41.54ZM235.171 50.72C235.171 51.44 235.257 52.0867 235.431 52.66C235.604 53.2333 235.871 53.7267 236.231 54.14C236.591 54.5533 237.044 54.8733 237.591 55.1C238.137 55.3133 238.784 55.42 239.531 55.42C240.171 55.42 240.764 55.3 241.311 55.06C241.871 54.82 242.351 54.4933 242.751 54.08C243.151 53.6533 243.464 53.16 243.691 52.6C243.931 52.0267 244.051 51.4067 244.051 50.74C244.051 49.9933 243.937 49.3267 243.711 48.74C243.497 48.1533 243.191 47.66 242.791 47.26C242.391 46.86 241.904 46.5533 241.331 46.34C240.771 46.1267 240.144 46.02 239.451 46.02C238.824 46.02 238.251 46.1333 237.731 46.36C237.211 46.5733 236.757 46.8867 236.371 47.3C235.997 47.7133 235.704 48.2067 235.491 48.78C235.277 49.3533 235.171 50 235.171 50.72ZM273.494 45.42C273.494 47.9667 273.22 50.1733 272.674 52.04C272.127 53.9067 271.367 55.4533 270.394 56.68C269.434 57.9067 268.287 58.82 266.954 59.42C265.634 60.02 264.2 60.32 262.654 60.32C261.107 60.32 259.674 60.02 258.354 59.42C257.047 58.82 255.914 57.9067 254.954 56.68C253.994 55.4533 253.24 53.9067 252.694 52.04C252.16 50.1733 251.894 47.9667 251.894 45.42C251.894 42.8733 252.16 40.6667 252.694 38.8C253.24 36.9333 253.994 35.3867 254.954 34.16C255.914 32.9333 257.047 32.0267 258.354 31.44C259.674 30.84 261.107 30.54 262.654 30.54C264.2 30.54 265.634 30.84 266.954 31.44C268.287 32.0267 269.434 32.9333 270.394 34.16C271.367 35.3867 272.127 36.9333 272.674 38.8C273.22 40.6667 273.494 42.8733 273.494 45.42ZM267.094 45.42C267.094 43.4067 266.967 41.76 266.714 40.48C266.46 39.1867 266.12 38.1733 265.694 37.44C265.28 36.7067 264.807 36.2067 264.274 35.94C263.74 35.66 263.2 35.52 262.654 35.52C262.107 35.52 261.567 35.66 261.034 35.94C260.514 36.2067 260.047 36.7067 259.634 37.44C259.234 38.1733 258.907 39.1867 258.654 40.48C258.414 41.76 258.294 43.4067 258.294 45.42C258.294 47.4467 258.414 49.1 258.654 50.38C258.907 51.66 259.234 52.6733 259.634 53.42C260.047 54.1533 260.514 54.66 261.034 54.94C261.567 55.2067 262.107 55.34 262.654 55.34C263.2 55.34 263.74 55.2067 264.274 54.94C264.807 54.66 265.28 54.1533 265.694 53.42C266.12 52.6733 266.46 51.66 266.714 50.38C266.967 49.1 267.094 47.4467 267.094 45.42Z" fill="black"/>
<path d="M42.989 65.016L38.7463 54.4092C38.3724 53.48 37.4292 52.9098 36.4327 53.0105L29.1273 53.7397C26.4 46.1463 26.4 37.8405 29.1273 30.2471L36.4327 30.9763C37.4297 31.0789 38.3739 30.5081 38.7463 29.5775L42.989 18.9708C43.3865 17.9582 43.008 16.8059 42.0874 16.2263L33.602 10.923C32.7134 10.3677 31.5591 10.4994 30.8184 11.2405C13.8145 28.2444 13.841 55.7821 30.8184 72.7595C31.5591 73.5012 32.7137 73.6331 33.6027 73.0777L42.088 67.7744C43.0111 67.19 43.3892 66.0325 42.989 65.016Z" fill="#009F40"/>
</svg>
